<?xml version="1.0" encoding="utf-8"?>
<!-- Generator: Adobe Illustrator 24.3.0, SVG Export Plug-In . SVG Version: 6.00 Build 0)  -->
<svg version="1.1" id="Layer_1" xmlns="http://www.w3.org/2000/svg" xmlns:xlink="http://www.w3.org/1999/xlink" x="0px" y="0px"
	 viewBox="0 0 691.25 594.158" style="enable-background:new 0 0 691.25 594.158;" xml:space="preserve">
<style type="text/css" opacity=".4">
	.st0{fill:none;stroke:#30B0D9;stroke-width:0.5;stroke-miterlimit:10;}
	.st1{fill:none;stroke:#30B0D9;stroke-width:1.3721;stroke-miterlimit:10;}
	.st2{fill:none;stroke:#30B0D9;stroke-width:1.4439;stroke-miterlimit:10;}
	.st3{fill:none;stroke:#30B0D9;stroke-width:0.75;stroke-miterlimit:10;}
	.st4{fill:none;stroke:#30B0D9;stroke-width:0.7621;stroke-miterlimit:10;}
	.st5{fill:none;stroke:#30B0D9;stroke-width:0.7409;stroke-miterlimit:10;}
	.st6{fill:none;stroke:#30B0D9;stroke-width:0.7719;stroke-miterlimit:10;}
	.st7{fill:none;stroke:#30B0D9;stroke-width:0.7285;stroke-miterlimit:10;}
	.st8{fill:none;stroke:#30B0D9;stroke-width:0.6444;stroke-miterlimit:10;}
	.st9{clip-path:url(#SVGID_2_);}
	.st10{fill:none;stroke:#30B0D9;stroke-width:0.4348;stroke-miterlimit:10;}
	.st11{clip-path:url(#SVGID_4_);}
	.st12{clip-path:url(#SVGID_6_);}
	.st13{clip-path:url(#SVGID_8_);}
	.st14{clip-path:url(#SVGID_10_);}
	.st15{clip-path:url(#SVGID_12_);}
	.st16{clip-path:url(#SVGID_14_);}
	.st17{clip-path:url(#SVGID_16_);}
	.st18{clip-path:url(#SVGID_18_);}
	.st19{clip-path:url(#SVGID_20_);}
	.st20{clip-path:url(#SVGID_22_);}
	.st21{clip-path:url(#SVGID_24_);}
	.st22{clip-path:url(#SVGID_26_);}
	.st23{clip-path:url(#SVGID_28_);}
	.st24{clip-path:url(#SVGID_30_);}
	.st25{clip-path:url(#SVGID_32_);}
	.st26{clip-path:url(#SVGID_34_);}
	.st27{clip-path:url(#SVGID_36_);}
	.st28{clip-path:url(#SVGID_38_);}
	.st29{clip-path:url(#SVGID_40_);}
	.st30{fill:#30B0D9;}
</style>
<path class="st30" d="M581.84,299.322l30.05-29.59l0.09-0.1h16.25l29.38-29.85l33.64-33.47v-50.56l-33.201-0.01v-33.59h-50.031
	v-49.99H574.42V0.022l-34.32,38.56h-16.24l-29.39,29.85l-33.9,33.37l-0.11,0.11l0.008,51.82H427.61v-32.77h-50.02v-48.78H344V0.022
	l-34.3,39.38h-16.25l-29.38,29.13l-34.02,32.68v48.98H197.2v-33.59h-50.02v-49.98h-29.59v-66.6l-38.32,33.01H63.02l-29.37,29.84
	L0,96.362v50.56h33.21v33.59h50.03v49.99h33.59v66.13l-34.97,33.47H65.09l-30.33,29.84L0,393.442v50.57h34.3v33.59h48.94v49.98
	l33.59-0.01v66.61l39.24-33.01h16.77l57.95-63.36l0.01-50.03l32.84-0.01v34.48h50.02v51.27h29.55v60.65l43.3-26.19l16.76-0.01
	l58.108-64.973v-51.311l39.102,0.014v28.76h48.39v48.75l24.79-0.002v64.958l40.91-32.187h15.71l28.42-29.11l32.55-32.67
	l0.013-45.962l-33.214,0.004l-0.013-36.118l-47.306-0.004v-48.75h-36.31v-62.486L581.84,299.322z M658.049,156.493l32.461,0.009
	v49.5l-32.47,32.31v-0.03l-30.13,30.6H611.7l-0.45,0.42l-0.07,0.07l-36.76,36.338l-0.01-69.658l83.639-0.003V156.493z
	 M574.41,235.302l0.01-78.81h82.87v78.81H574.41z M461.378,102.207l32.672-32.306v0.03l30.12-30.6h16.26l33.24-37.31l-0.01,70.14
	h-79.61v81.57l-32.672-0.013V102.207z M573.66,72.912v80.82H494.8v-80.82H573.66z M427.61,154.482h32.858v48.29l-32.858,31.55v-0.03
	l-30.11,29.86h-16.66v0.41l-36.89,35.44v-67.89h83.66V154.482z M343.95,231.372v-76.89l82.75-0.01v76.89L343.95,231.372z
	 M344,72.922h32.85v48.78l49.85-0.01v32.05h-83.49v77.63h-28.8v-48.78h-50.03v-32.03H344V72.922z M264.38,149.822v-76.9h78.88v76.9
	H264.38z M230.79,101.522l32.85-31.55v0.03l30.11-29.86h16.29l33.22-38.11v70.15h-79.62v77.64h-32.85V101.522z M197.2,150.942h32.84
	v49.5l-32.84,32.33v-0.03l-30.12,30.6h-16.66v0.41l-32.84,32.43v-65.68h79.62V150.942z M117.58,229.752v-78.81h78.87v78.81H117.58z
	 M33.21,146.172H0.76v-49.49l32.45-32.33v0.03l30.13-30.6h16.23l37.26-31.93l0.01,64.77H33.21V146.172z M116.83,67.372v78.8H33.96
	v-78.8H116.83z M83.99,229.752v-49.99H33.96v-32.84h83.63v-79.55h28.84v49.99l50.02-0.01v32.84h-79.62v79.56H83.99z M34.3,443.252
	H0.76v-49.49l33.54-32.34v0.03l31.1-30.59h16.76l31.36-29.89l0.68-0.66h-0.02l2.65-2.62v66H34.3V443.252z M116.83,364.442v78.8
	l-81.76,0.01v-78.8L116.83,364.442z M116.83,526.832l-32.82-0.01v-49.99c-0.2,0.01-48.94,0.01-48.94,0.01v-32.83l82.52-0.01v-79.54
	l33.62-0.01v49.99h45.24v32.83l-79.62-0.02V526.832z M196.45,448.022v78.79h-78.86v-78.8L196.45,448.022z M230.03,497.482
	l-57.5,62.93h-16.7l-38.24,31.95v-64.79l79.61,0.01v-79.55l32.83-0.01V497.482z M230.15,395.812l-0.12,0.11v51.34H197.2v-33.59
	h-45.23v-49.98h-34.38v-66.46l3.42-3.46l30.14-29.68h16.24l29.39-29.85l34.01-33.49v-50.19h32.85v32.77h50.02v48.78h29.55v68.45
	l-30.94,30.4H295.5l-30.34,30.61L230.15,395.812z M263.64,447.012l-32.84,0.01v-50.77l33.92-33.16v0.03l31.1-31.39h16.76
	l30.63-30.07v63.78l-79.57-0.04V447.012z M343.21,366.212v80.8h-78.8v-80.84L343.21,366.212z M343.21,532.752l-28.78-0.01v-51.27
	h-50.02v-33.7l79.54,0.01v-81.57l37.67-0.03v51.27h45.08v33.67l-83.49,0.01V532.752z M426.7,451.902v80.83l-82.75,0.01v-80.85
	L426.7,451.902z M460.468,502.674l-57.528,64.528h-16.53l-42.46,25.43v-59.11l83.66-0.01v-81.6l32.858-0.001V502.674z
	 M460.578,398.281l-0.11,0.1v52.76l-32.858-0.009v-34.45h-45.22v-51.27l-38.44,0.03v-64.37l37.61-36.18h16.24l29.38-29.12
	l34.198-32.682v-48.621l32.672,0.013v31.58h50.03v49.98h29.58l0,70.395l-28.63,30.175h-15.71L460.578,398.281z M500.48,450.972
	l-39.102-0.014l-0.18-52.267l68.422-61.359h15.7l0.42-0.41l0.06-0.06l27.86-29.249v61.759h-73.18V450.972z M573.66,370.102l0,80.87
	h-72.45v-80.87H573.66z M658.049,454.963l32.494-0.004l-0.013,44.942l-31.41,31.53v-0.03l-29.14,29.85h-15.64l-39.92,31.095V529.21
	l83.616,0.005L658.049,454.963z M574.42,528.474v-73.531l82.899,0.03l-0.03,73.522L574.42,528.474z M610,370.102v48.75l47.289,0.004
	l0.03,35.388l-83.66-0.03v74.251l-24.06,0.018v-48.75h-48.39v-28.03h73.21v-81.6H610z M573.66,155.742l0,79.55h-28.83v-49.98H494.8
	v-30.83h79.62v-81.57h32.84v49.99h50.03v32.84H573.66z"/>
</svg>
