<?xml version="1.0" encoding="utf-8"?>
<!-- Generator: Adobe Illustrator 24.3.0, SVG Export Plug-In . SVG Version: 6.00 Build 0)  -->
<svg version="1.1" id="Calque_1" xmlns="http://www.w3.org/2000/svg" xmlns:xlink="http://www.w3.org/1999/xlink" x="0px" y="0px"
	 viewBox="0 0 686.842 516.828" style="enable-background:new 0 0 686.842 516.828;" xml:space="preserve">
<style type="text/css">
	.st0{fill:#43727D;}
	.st1{fill:#31B0D9;}
	.st2{fill:#DBE5ED;}
	.st3{fill:#1E2547;}
	.st4{fill:none;}
	.st5{fill:#045161;}
	.st6{fill:#FBEFE5;}
	.st7{fill:#E95E54;}
</style>
<rect x="515.19" y="430.159" class="st0" width="86.032" height="86.032"/>
<polygon class="st1" points="515.19,516.191 601.222,430.159 601.222,516.191 "/>
<polygon class="st2" points="601.217,516.187 515.188,516.187 558.208,473.177 "/>
<rect x="343.544" y="86.025" class="st1" width="257.474" height="258.102"/>
<rect x="601.017" y="86.025" class="st3" width="85.825" height="86.038"/>
<rect x="601.017" y="172.064" class="st0" width="85.825" height="172.064"/>
<rect x="343.544" y="344.127" class="st0" width="85.825" height="86.025"/>
<rect x="429.368" y="344.127" class="st2" width="85.825" height="86.025"/>
<rect x="515.193" y="344.127" class="st3" width="85.825" height="86.025"/>
<rect x="601.012" y="344.127" class="st1" width="85.823" height="86.032"/>
<rect x="343.544" y="430.159" class="st3" width="85.823" height="86.032"/>
<rect x="429.367" y="430.159" class="st1" width="85.823" height="86.032"/>
<rect x="601.017" y="430.152" class="st0" width="85.825" height="86.038"/>
<path class="st2" d="M407.056,452.995v9.336c-4.282-4.352-9.335-6.528-15.231-6.528c-4.913,0-9.054,1.685-12.353,4.984
	c-3.299,3.299-4.913,7.44-4.913,12.424s1.615,9.125,4.913,12.424c3.299,3.299,7.44,4.914,12.353,4.914
	c5.896,0,10.95-2.176,15.231-6.528v9.336c-4.141,3.439-9.195,5.124-15.231,5.124c-7.23,0-13.406-2.386-18.46-7.159
	c-4.984-4.843-7.51-10.88-7.51-18.109s2.527-13.266,7.51-18.109c5.054-4.843,11.23-7.23,18.46-7.23
	C397.791,447.871,402.844,449.555,407.056,452.995z"/>
<g>
	<path class="st2" d="M625.186,304.731h3.103c-1.446,1.423-2.17,3.103-2.17,5.062c0,1.633,0.56,3.009,1.656,4.106
		c1.097,1.096,2.473,1.633,4.129,1.633c1.656,0,3.033-0.537,4.129-1.633c1.096-1.096,1.633-2.473,1.633-4.106
		c0-1.96-0.723-3.639-2.17-5.062h3.103c1.143,1.376,1.703,3.056,1.703,5.062c0,2.403-0.793,4.456-2.379,6.135
		c-1.61,1.656-3.616,2.496-6.019,2.496c-2.403,0-4.409-0.84-6.019-2.496c-1.61-1.68-2.403-3.733-2.403-6.135
		C623.483,307.811,624.043,306.131,625.186,304.731z"/>
	<path class="st2" d="M634.144,303.004c-1.75,0-3.243-0.63-4.432-1.866c-1.19-1.236-1.796-2.753-1.796-4.549
		s0.607-3.313,1.796-4.549c1.19-1.236,2.683-1.866,4.432-1.866s3.243,0.63,4.432,1.866c1.19,1.236,1.796,2.753,1.796,4.549
		s-0.607,3.313-1.796,4.549C637.387,302.374,635.894,303.004,634.144,303.004z M636.781,293.999c-0.723-0.7-1.586-1.05-2.636-1.05
		c-1.05,0-1.913,0.35-2.613,1.05c-0.723,0.7-1.073,1.563-1.073,2.589c0,1.05,0.35,1.913,1.073,2.613
		c0.7,0.677,1.563,1.027,2.613,1.027c1.05,0,1.913-0.35,2.636-1.027c0.7-0.7,1.05-1.563,1.05-2.613
		C637.83,295.562,637.48,294.699,636.781,293.999z"/>
	<path class="st2" d="M640.023,288.213h-11.758v-2.776h1.68c-1.143-0.56-1.913-1.89-1.913-3.569c0-2.799,1.796-4.456,4.712-4.456
		h7.279v2.799h-6.882c-1.61,0-2.613,0.933-2.613,2.496c0,1.586,1.12,2.729,2.729,2.729h6.765V288.213z"/>
	<path class="st2" d="M640.023,273.726h-9.215v1.936h-2.543v-1.936h-0.583c-1.796,0-2.776-0.373-3.453-1.283
		c-0.537-0.723-0.793-1.843-0.793-3.359c0-0.817,0.047-1.446,0.117-1.913h2.38c-0.07,0.396-0.117,0.933-0.117,1.563
		c0,1.61,0.466,2.31,1.656,2.31h0.793v-6.999h11.758v2.776h-9.215v4.199h9.215V273.726z"/>
	<path class="st2" d="M629.969,252.45h-6.205v-2.799h16.26v2.799h-1.703c1.143,0.396,1.96,1.82,1.96,3.756
		c0,1.656-0.583,3.056-1.75,4.199c-1.19,1.12-2.636,1.68-4.386,1.68s-3.196-0.56-4.362-1.68c-1.19-1.143-1.773-2.543-1.773-4.199
		C628.009,254.27,628.826,252.846,629.969,252.45z M636.711,253.29c-0.677-0.7-1.54-1.05-2.566-1.05c-1.026,0-1.89,0.35-2.566,1.05
		c-0.676,0.676-1.026,1.54-1.026,2.543c0,1.003,0.35,1.82,1.026,2.496c0.677,0.653,1.54,0.98,2.566,0.98
		c1.027,0,1.89-0.327,2.566-0.98c0.676-0.677,1.026-1.493,1.026-2.496C637.737,254.829,637.387,253.966,636.711,253.29z"/>
	<path class="st2" d="M634.144,247.714c-1.843,0-3.336-0.56-4.456-1.703c-1.143-1.143-1.703-2.613-1.703-4.386
		c0-1.703,0.56-3.079,1.703-4.129c1.12-1.073,2.52-1.61,4.176-1.61c0.35,0,0.7,0.023,1.003,0.047v9.005
		c1.866-0.093,3.056-1.47,3.056-3.546c0-1.843-0.443-3.243-1.353-4.223h2.613c0.793,1.143,1.19,2.59,1.19,4.339
		c0,1.843-0.56,3.359-1.656,4.502c-1.12,1.143-2.613,1.703-4.456,1.703H634.144z M632.885,238.732c-0.677,0-1.283,0.28-1.773,0.84
		c-0.49,0.56-0.747,1.236-0.747,2.053c0,0.863,0.257,1.61,0.747,2.239c0.49,0.63,1.073,0.957,1.773,1.003V238.732z"/>
	<path class="st2" d="M640.023,233.996h-11.758v-2.776h1.68c-1.143-0.56-1.913-1.89-1.913-3.569c0-2.799,1.796-4.456,4.712-4.456
		h7.279v2.799h-6.882c-1.61,0-2.613,0.933-2.613,2.496c0,1.586,1.12,2.73,2.729,2.73h6.765V233.996z"/>
	<path class="st2" d="M629.082,211.157h2.799c-0.957,1.003-1.446,2.216-1.446,3.616c0,1.097,0.35,2.006,1.05,2.729
		c0.7,0.723,1.586,1.073,2.636,1.073c1.05,0,1.936-0.35,2.636-1.073c0.7-0.723,1.05-1.633,1.05-2.729
		c0-1.423-0.49-2.636-1.446-3.616h2.799c0.793,0.98,1.19,2.24,1.19,3.779c0,1.82-0.583,3.336-1.773,4.573
		c-1.19,1.236-2.66,1.843-4.456,1.843c-1.796,0-3.266-0.607-4.456-1.843c-1.19-1.237-1.773-2.753-1.773-4.573
		C627.893,213.42,628.289,212.16,629.082,211.157z"/>
	<path class="st2" d="M634.144,209.593c-1.843,0-3.336-0.56-4.456-1.703c-1.143-1.143-1.703-2.613-1.703-4.386
		c0-1.703,0.56-3.079,1.703-4.129c1.12-1.073,2.52-1.61,4.176-1.61c0.35,0,0.7,0.023,1.003,0.047v9.005
		c1.866-0.093,3.056-1.47,3.056-3.546c0-1.843-0.443-3.243-1.353-4.223h2.613c0.793,1.143,1.19,2.59,1.19,4.339
		c0,1.843-0.56,3.359-1.656,4.502c-1.12,1.143-2.613,1.703-4.456,1.703H634.144z M632.885,200.612c-0.677,0-1.283,0.28-1.773,0.84
		c-0.49,0.56-0.747,1.236-0.747,2.053c0,0.863,0.257,1.61,0.747,2.239c0.49,0.63,1.073,0.957,1.773,1.003V200.612z"/>
	<path class="st2" d="M664.073,317.562h-16.26v-6.205c0-1.376,0.49-2.613,1.47-3.686c0.98-1.073,2.263-1.61,3.826-1.61
		c1.516,0,2.776,0.536,3.779,1.61c1.003,1.05,1.493,2.286,1.493,3.686v3.289h5.692V317.562z M655.745,314.646v-3.149
		c0-1.306-0.957-2.543-2.636-2.543c-1.703,0-2.659,1.236-2.659,2.543v3.149H655.745z"/>
	<path class="st2" d="M654.018,295.586h-1.703v-2.799h11.758v2.799h-1.703c1.143,0.397,1.96,1.82,1.96,3.756
		c0,1.656-0.583,3.056-1.75,4.199c-1.19,1.12-2.636,1.68-4.386,1.68c-1.75,0-3.196-0.56-4.363-1.68
		c-1.19-1.143-1.773-2.543-1.773-4.199C652.059,297.405,652.875,295.982,654.018,295.586z M660.76,296.426
		c-0.677-0.7-1.54-1.05-2.566-1.05c-1.027,0-1.89,0.35-2.566,1.05c-0.677,0.677-1.026,1.54-1.026,2.543
		c0,1.003,0.35,1.82,1.026,2.496c0.676,0.653,1.54,0.98,2.566,0.98c1.026,0,1.889-0.327,2.566-0.98
		c0.677-0.677,1.026-1.493,1.026-2.496C661.787,297.965,661.437,297.102,660.76,296.426z"/>
	<path class="st2" d="M664.073,290.36h-11.758v-2.776h1.75c-1.237-0.56-1.983-1.843-1.983-3.499c0-0.327,0.023-0.606,0.07-0.84
		h2.706c-0.07,0.35-0.116,0.746-0.116,1.166c0,1.936,1.213,3.173,3.149,3.173h6.182V290.36z"/>
	<path class="st2" d="M664.073,280.468h-9.215v1.516h-2.543v-1.516h-4.502v-2.799h4.502v-2.543h2.543v2.543h9.215V280.468z"/>
	<path class="st2" d="M664.073,273.422h-11.758v-2.776h1.68c-1.143-0.56-1.913-1.89-1.913-3.569c0-2.799,1.796-4.456,4.712-4.456
		h7.279v2.799h-6.882c-1.61,0-2.613,0.933-2.613,2.496c0,1.586,1.12,2.73,2.729,2.73h6.765V273.422z"/>
	<path class="st2" d="M658.194,260.778c-1.843,0-3.336-0.56-4.456-1.703c-1.143-1.143-1.703-2.613-1.703-4.386
		c0-1.703,0.56-3.079,1.703-4.129c1.12-1.073,2.519-1.61,4.176-1.61c0.35,0,0.7,0.023,1.003,0.047v9.005
		c1.866-0.093,3.056-1.47,3.056-3.546c0-1.843-0.443-3.243-1.353-4.223h2.613c0.793,1.143,1.19,2.59,1.19,4.339
		c0,1.843-0.56,3.359-1.656,4.502c-1.12,1.143-2.613,1.703-4.456,1.703H658.194z M656.934,251.796c-0.677,0-1.283,0.28-1.773,0.84
		c-0.49,0.56-0.746,1.236-0.746,2.053c0,0.863,0.256,1.61,0.746,2.239c0.49,0.63,1.073,0.957,1.773,1.003V251.796z"/>
	<path class="st2" d="M664.073,247.061h-11.758v-2.776h1.75c-1.237-0.56-1.983-1.843-1.983-3.499c0-0.327,0.023-0.607,0.07-0.84
		h2.706c-0.07,0.35-0.116,0.746-0.116,1.166c0,1.936,1.213,3.173,3.149,3.173h6.182V247.061z"/>
</g>
<polygon class="st1" points="515.19,391.99 537.871,369.67 540.598,366.978 563.099,344.127 601.143,344.127 601.143,369.67 
	540.598,369.67 540.598,430.161 515.064,430.161 515.064,430.152 "/>
<polygon class="st3" points="686.842,430.166 686.842,467.906 664.216,490.171 661.504,492.843 639.185,515.509 626.784,515.509 
	626.784,515.669 626.249,516.191 601.445,516.191 601.445,490.171 661.504,490.171 661.504,430.166 "/>
<g>
	<polygon class="st3" points="503.482,144.493 503.482,170.818 441.079,170.818 441.079,233.17 414.754,233.17 414.754,193.96 
		438.264,170.818 441.079,168.046 441.079,168.053 464.272,144.493 	"/>
	<polygon class="st3" points="529.806,170.818 529.806,210.028 506.297,233.17 503.482,235.942 503.482,235.934 480.289,259.494 
		467.404,259.494 467.404,259.651 443.844,282.843 443.852,282.843 441.079,285.659 441.079,233.17 503.482,233.17 503.482,170.818 
			"/>
</g>
<g>
	<polygon class="st3" points="487.488,458.057 487.488,458.243 460.264,485.034 457.068,488.292 457.068,458.057 	"/>
</g>
<polygon class="st1" points="675.408,130.904 666.064,140.248 643.915,118.099 621.784,140.23 612.44,130.886 626.357,116.969 
	642.916,117.099 644.899,117.115 644.896,117.117 661.491,116.987 "/>
<rect x="626.969" y="370.188" class="st3" width="33.91" height="33.91"/>
<rect x="369.5" y="370.188" class="st3" width="33.91" height="33.91"/>
<rect x="257.596" y="0.013" class="st1" width="85.825" height="86.038"/>
<rect x="171.736" y="258.736" class="st0" width="86.032" height="86.032"/>
<polygon class="st1" points="171.736,344.767 257.768,258.736 257.768,344.767 "/>
<polygon class="st2" points="257.763,344.763 171.734,344.763 214.754,301.754 "/>
<polygon class="st3" points="257.596,0.637 171.772,86.662 171.772,0.637 "/>
<polygon class="st2" points="257.596,0.02 257.596,86.045 171.772,86.045 "/>
<polygon class="st5" points="171.777,487.342 201.056,516.621 171.777,516.621 "/>
<polygon class="st0" points="257.596,430.791 257.596,516.621 231.118,516.621 171.777,457.27 171.777,430.791 "/>
<polygon class="st6" points="171.777,487.342 201.056,516.621 142.497,516.621 "/>
<polygon class="st2" points="257.596,516.621 231.118,516.621 171.777,457.27 112.435,516.621 85.957,516.621 171.777,430.791 "/>
<polygon class="st3" points="171.772,430.789 171.772,430.8 85.952,516.619 85.952,430.789 "/>
<polygon class="st1" points="231.118,516.621 201.056,516.621 171.777,487.342 142.497,516.621 112.435,516.621 171.777,457.27 "/>
<polygon class="st7" points="171.777,487.342 171.777,516.621 142.497,516.621 "/>
<polygon class="st7" points="201.056,516.621 171.777,516.621 171.777,487.342 "/>
<polygon class="st0" points="201.056,516.621 142.497,516.621 171.777,487.342 "/>
<polygon class="st0" points="343.418,0.737 343.418,0.747 257.599,86.566 257.599,0.737 "/>
<rect x="85.947" y="0.637" class="st0" width="85.825" height="86.025"/>
<rect x="85.947" y="86.662" class="st1" width="85.825" height="86.038"/>
<rect x="171.775" y="86.669" class="st3" width="85.823" height="86.032"/>
<rect x="257.596" y="86.662" class="st2" width="85.825" height="86.038"/>
<rect x="0.122" y="172.701" class="st2" width="85.825" height="86.038"/>
<rect x="85.952" y="172.701" class="st0" width="85.823" height="86.032"/>
<rect x="171.775" y="172.701" class="st1" width="85.823" height="86.032"/>
<rect x="257.596" y="172.701" class="st0" width="85.825" height="86.038"/>
<rect x="0.129" y="258.732" class="st0" width="85.823" height="86.032"/>
<rect x="85.952" y="258.732" class="st1" width="85.823" height="86.032"/>
<rect x="257.596" y="258.739" class="st3" width="85.825" height="86.025"/>
<polygon class="st3" points="85.947,344.764 0.122,430.789 0.122,344.764 "/>
<polygon class="st2" points="85.947,344.764 85.947,430.789 0.122,430.789 "/>
<rect x="85.952" y="344.764" class="st0" width="85.823" height="86.032"/>
<rect x="171.775" y="344.764" class="st2" width="85.823" height="86.032"/>
<rect x="257.596" y="430.789" class="st0" width="85.825" height="86.038"/>
<rect x="257.596" y="344.757" class="st1" width="85.825" height="86.038"/>
<rect x="0.129" y="430.796" class="st1" width="85.823" height="86.032"/>
<path class="st2" d="M149.46,23.47v9.336c-4.282-4.352-9.335-6.528-15.231-6.528c-4.913,0-9.054,1.685-12.353,4.984
	c-3.299,3.299-4.913,7.44-4.913,12.424s1.615,9.125,4.913,12.424c3.299,3.299,7.44,4.913,12.353,4.913
	c5.896,0,10.95-2.176,15.231-6.528v9.336c-4.141,3.439-9.195,5.124-15.231,5.124c-7.23,0-13.406-2.386-18.46-7.159
	c-4.984-4.843-7.51-10.88-7.51-18.109s2.527-13.266,7.51-18.109c5.054-4.843,11.23-7.23,18.46-7.23
	C140.195,18.346,145.249,20.03,149.46,23.47z"/>
<path class="st2" d="M196.789,241.02v-50.607h19.313c4.284,0,8.132,1.525,11.472,4.574c3.34,3.05,5.01,7.042,5.01,11.907
	c0,4.719-1.67,8.64-5.01,11.763c-3.267,3.122-7.116,4.647-11.472,4.647h-10.237v17.716H196.789z M205.865,215.1h9.802
	c4.066,0,7.914-2.977,7.914-8.205c0-5.3-3.848-8.277-7.914-8.277h-9.802V215.1z"/>
<polygon class="st3" points="343.55,344.764 343.55,370.304 283.009,370.304 283.009,430.796 257.469,430.796 257.469,392.756 
	280.277,370.304 283.009,367.614 283.009,367.622 305.51,344.764 "/>
<polygon class="st3" points="86.081,258.732 86.081,284.272 25.54,284.272 25.54,344.764 0,344.764 0,306.724 22.808,284.272 
	25.54,281.582 25.54,281.59 48.041,258.732 "/>
<polygon class="st2" points="85.823,258.732 85.823,284.272 146.364,284.272 146.364,344.764 171.904,344.764 171.904,306.724 
	149.096,284.272 146.364,281.582 146.364,281.59 123.863,258.732 "/>
<polygon class="st2" points="257.468,258.736 257.468,284.276 318.009,284.276 318.009,344.767 343.549,344.767 343.549,306.727 
	320.741,284.276 318.009,281.586 318.009,281.593 295.508,258.736 "/>
<polygon class="st2" points="343.207,430.803 343.207,468.877 320.381,491.329 317.641,494.028 295.203,516.828 257.596,516.828 
	257.596,491.329 317.641,491.329 317.641,430.803 "/>
<polygon class="st0" points="257.492,86.672 257.492,124.747 234.666,147.198 231.926,149.898 209.488,172.697 171.881,172.697 
	171.881,147.198 231.926,147.198 231.926,86.672 "/>
<polygon class="st3" points="54.272,190.298 54.272,199.78 31.797,199.78 31.797,222.237 22.316,222.237 22.316,208.114 
	30.783,199.78 31.797,198.781 31.797,198.784 40.15,190.298 "/>
<polygon class="st3" points="63.754,199.78 63.754,213.902 55.286,222.237 54.272,223.235 54.272,223.232 45.919,231.718 
	41.278,231.718 41.278,231.774 32.793,240.127 32.796,240.127 31.797,241.142 31.797,222.237 54.272,222.237 54.272,199.78 "/>
<polygon class="st3" points="315.719,114.564 315.719,114.749 288.495,141.54 285.299,144.799 285.299,114.564 "/>
<rect x="343.411" y="0.013" class="st0" width="85.825" height="86.038"/>
<polygon class="st2" points="401.533,27.915 401.533,28.101 374.31,54.892 371.114,58.15 371.114,27.915 "/>
<polygon class="st3" points="160.343,131.541 150.999,140.885 128.85,118.736 106.719,140.867 97.376,131.523 111.293,117.606 
	127.851,117.736 129.834,117.752 129.832,117.755 146.426,117.624 "/>
<polygon class="st3" points="246.17,390.076 236.827,399.419 214.677,377.27 192.546,399.401 183.203,390.058 197.12,376.141 
	213.678,376.271 215.662,376.286 215.659,376.289 232.253,376.159 "/>
<polygon class="st3" points="74.524,476.108 65.181,485.451 43.032,463.302 20.9,485.433 11.557,476.089 25.474,462.172 
	42.032,462.303 44.016,462.318 44.013,462.321 60.607,462.19 "/>
<g>
	<path class="st2" d="M131.263,407.229c-3.306,0.393-6.542,0.035-9.619-1.257c-0.869-0.363-1.655-0.374-2.529-0.223
		c-2.99,0.519-5.986,1.006-8.98,1.502c-0.251,0.04-0.507,0.051-0.872,0.088c0.295-1.851,0.572-3.629,0.862-5.403
		c0.295-1.815,0.639-3.624,0.877-5.445c0.058-0.444-0.153-0.953-0.332-1.395c-4.117-10.154,1.063-21.912,11.326-25.683
		c11.387-4.185,23.659,2.681,26.092,14.595C150.335,395.02,142.461,405.897,131.263,407.229z"/>
</g>
<rect x="111.909" y="198.762" class="st2" width="33.91" height="33.91"/>
<rect x="0.022" y="0.636" class="st3" width="85.823" height="86.032"/>
<rect x="25.979" y="26.697" class="st1" width="33.91" height="33.91"/>
<rect x="283.447" y="198.762" transform="matrix(0.7071 0.7071 -0.7071 0.7071 240.5202 -149.2342)" class="st2" width="33.91" height="33.91"/>
<rect x="0.128" y="86.226" class="st0" width="85.825" height="86.038"/>
<rect x="25.979" y="112.287" transform="matrix(0.7071 0.7071 -0.7071 0.7071 103.9629 7.4955)" class="st2" width="33.91" height="33.91"/>
<rect x="429.368" class="st2" width="85.825" height="86.025"/>
<rect x="515.193" class="st0" width="85.825" height="86.025"/>
<rect x="601.012" class="st2" width="85.823" height="86.032"/>
<path class="st2" d="M540.208,68.316V17.709h19.313c4.284,0,8.132,1.525,11.472,4.574c3.34,3.05,5.01,7.042,5.01,11.907
	c0,4.719-1.67,8.64-5.01,11.763c-3.267,3.122-7.116,4.647-11.472,4.647h-10.237v17.716H540.208z M549.283,42.396h9.802
	c4.066,0,7.914-2.977,7.914-8.205c0-5.3-3.848-8.277-7.914-8.277h-9.802V42.396z"/>
<g id="pYxIru_2_">
	<g>
		<path class="st0" d="M646.323,62.465c-3.306,0.393-6.542,0.035-9.619-1.256c-0.869-0.363-1.655-0.374-2.529-0.223
			c-2.99,0.519-5.986,1.006-8.98,1.502c-0.251,0.04-0.507,0.051-0.872,0.088c0.295-1.851,0.572-3.629,0.862-5.403
			c0.295-1.815,0.639-3.624,0.877-5.445c0.058-0.444-0.153-0.953-0.332-1.395c-4.117-10.154,1.063-21.912,11.326-25.683
			c11.387-4.185,23.659,2.681,26.092,14.595C665.396,50.256,657.521,61.133,646.323,62.465z"/>
	</g>
</g>
<rect x="455.326" y="26.058" class="st3" width="33.91" height="33.91"/>
<rect x="455.326" y="370.185" transform="matrix(0.7071 0.7071 -0.7071 0.7071 412.0768 -220.5621)" class="st3" width="33.91" height="33.91"/>
</svg>
