<?xml version="1.0" encoding="utf-8"?>
<!-- Generator: Adobe Illustrator 24.3.0, SVG Export Plug-In . SVG Version: 6.00 Build 0)  -->
<svg version="1.1" xmlns="http://www.w3.org/2000/svg" xmlns:xlink="http://www.w3.org/1999/xlink" x="0px" y="0px"
	 viewBox="0 0 1365.434 1044.222" style="enable-background:new 0 0 1365.434 1044.222;" xml:space="preserve">
<style type="text/css">
	.st0{fill:#1E2547;}
	.st1{fill:#31B0D9;}
	.st2{fill:none;stroke:#31B0D9;stroke-width:0;stroke-miterlimit:10;}
	.st3{opacity:0.13;fill:#1E2547;}
	.st4{clip-path:url(#SVGID_3_);}
	.st5{clip-path:url(#SVGID_5_);}
	.st6{clip-path:url(#SVGID_7_);}
	.st7{clip-path:url(#SVGID_9_);}
	.st8{clip-path:url(#SVGID_11_);}
	.st9{clip-path:url(#SVGID_12_);}
	.st10{fill:none;}
</style>
<g id="Layer_1">
</g>
<g id="Calque_1">
</g>
<g id="Isolation_Mode">
	<g>
		<polygon class="st1" points="763.395,15.345 763.395,39.282 706.654,39.282 706.654,95.976 682.717,95.976 682.717,60.324 
			704.094,39.282 706.654,36.761 706.654,36.768 727.742,15.345 		"/>
		<polygon class="st1" points="819.261,0 819.261,35.652 797.884,56.695 795.324,59.216 795.324,59.209 774.236,80.631 
			762.52,80.631 762.52,80.774 741.097,101.862 741.104,101.862 738.583,104.422 738.583,56.695 795.324,56.695 795.324,0 		"/>
	</g>
	<g>
		<polygon class="st1" points="763.395,119.767 763.395,143.704 706.654,143.704 706.654,200.399 682.717,200.399 682.717,164.746 
			704.094,143.704 706.654,141.183 706.654,141.19 727.742,119.767 		"/>
		<polygon class="st1" points="819.261,104.422 819.261,140.075 797.884,161.117 795.324,163.638 795.324,163.631 774.236,185.054 
			762.52,185.054 762.52,185.196 741.097,206.284 741.104,206.284 738.583,208.844 738.583,161.117 795.324,161.117 
			795.324,104.422 		"/>
	</g>
	<g>
		<polygon class="st1" points="763.395,224.189 763.395,248.126 706.654,248.126 706.654,304.821 682.717,304.821 682.717,269.168 
			704.094,248.126 706.654,245.605 706.654,245.612 727.742,224.189 		"/>
		<polygon class="st1" points="819.261,208.844 819.261,244.497 797.884,265.539 795.324,268.06 795.324,268.053 774.236,289.476 
			762.52,289.476 762.52,289.618 741.097,310.706 741.104,310.706 738.583,313.267 738.583,265.539 795.324,265.539 
			795.324,208.844 		"/>
	</g>
	<g>
		<polygon class="st1" points="763.395,328.612 763.395,352.548 706.654,352.548 706.654,409.243 682.717,409.243 682.717,373.59 
			704.094,352.548 706.654,350.027 706.654,350.034 727.742,328.612 		"/>
		<polygon class="st1" points="819.261,313.267 819.261,348.919 797.884,369.961 795.324,372.482 795.324,372.475 774.236,393.898 
			762.52,393.898 762.52,394.04 741.097,415.129 741.104,415.129 738.583,417.689 738.583,369.961 795.324,369.961 795.324,313.267 
					"/>
	</g>
	<g>
		<polygon class="st1" points="763.395,433.034 763.395,456.97 706.654,456.97 706.654,513.665 682.717,513.665 682.717,478.013 
			704.094,456.97 706.654,454.449 706.654,454.456 727.742,433.034 		"/>
		<polygon class="st1" points="819.261,417.689 819.261,453.341 797.884,474.383 795.324,476.904 795.324,476.897 774.236,498.32 
			762.52,498.32 762.52,498.462 741.097,519.551 741.104,519.551 738.583,522.111 738.583,474.383 795.324,474.383 795.324,417.689 
					"/>
	</g>
	<g>
		<polygon class="st1" points="763.395,537.456 763.395,561.392 706.654,561.392 706.654,618.087 682.717,618.087 682.717,582.435 
			704.094,561.392 706.654,558.872 706.654,558.879 727.742,537.456 		"/>
		<polygon class="st1" points="819.261,522.111 819.261,557.763 797.884,578.806 795.324,581.327 795.324,581.319 774.236,602.742 
			762.52,602.742 762.52,602.884 741.097,623.973 741.104,623.973 738.583,626.533 738.583,578.806 795.324,578.806 
			795.324,522.111 		"/>
	</g>
	<g>
		<polygon class="st1" points="626.851,15.345 626.851,39.282 570.11,39.282 570.11,95.976 546.174,95.976 546.174,60.324 
			567.55,39.282 570.11,36.761 570.11,36.768 591.199,15.345 		"/>
		<polygon class="st1" points="682.717,0 682.717,35.652 661.341,56.695 658.781,59.216 658.781,59.209 637.692,80.631 
			625.976,80.631 625.976,80.774 604.553,101.862 604.561,101.862 602.04,104.422 602.04,56.695 658.781,56.695 658.781,0 		"/>
	</g>
	<g>
		<polygon class="st1" points="626.851,119.767 626.851,143.704 570.11,143.704 570.11,200.399 546.174,200.399 546.174,164.746 
			567.55,143.704 570.11,141.183 570.11,141.19 591.199,119.767 		"/>
		<polygon class="st1" points="682.717,104.422 682.717,140.075 661.341,161.117 658.781,163.638 658.781,163.631 637.692,185.054 
			625.976,185.054 625.976,185.196 604.553,206.284 604.561,206.284 602.04,208.844 602.04,161.117 658.781,161.117 
			658.781,104.422 		"/>
	</g>
	<g>
		<polygon class="st1" points="626.851,224.189 626.851,248.126 570.11,248.126 570.11,304.821 546.174,304.821 546.174,269.168 
			567.55,248.126 570.11,245.605 570.11,245.612 591.199,224.189 		"/>
		<polygon class="st1" points="682.717,208.844 682.717,244.497 661.341,265.539 658.781,268.06 658.781,268.053 637.692,289.476 
			625.976,289.476 625.976,289.618 604.553,310.706 604.561,310.706 602.04,313.267 602.04,265.539 658.781,265.539 
			658.781,208.844 		"/>
	</g>
	<g>
		<polygon class="st1" points="626.851,328.612 626.851,352.548 570.11,352.548 570.11,409.243 546.174,409.243 546.174,373.59 
			567.55,352.548 570.11,350.027 570.11,350.034 591.199,328.612 		"/>
		<polygon class="st1" points="682.717,313.267 682.717,348.919 661.341,369.961 658.781,372.482 658.781,372.475 637.692,393.898 
			625.976,393.898 625.976,394.04 604.553,415.129 604.561,415.129 602.04,417.689 602.04,369.961 658.781,369.961 658.781,313.267 
					"/>
	</g>
	<g>
		<polygon class="st1" points="626.851,433.034 626.851,456.97 570.11,456.97 570.11,513.665 546.174,513.665 546.174,478.013 
			567.55,456.97 570.11,454.449 570.11,454.456 591.199,433.034 		"/>
		<polygon class="st1" points="682.717,417.689 682.717,453.341 661.341,474.383 658.781,476.904 658.781,476.897 637.692,498.32 
			625.976,498.32 625.976,498.462 604.553,519.551 604.561,519.551 602.04,522.111 602.04,474.383 658.781,474.383 658.781,417.689 
					"/>
	</g>
	<g>
		<polygon class="st1" points="626.851,537.456 626.851,561.392 570.11,561.392 570.11,618.087 546.174,618.087 546.174,582.435 
			567.55,561.392 570.11,558.872 570.11,558.879 591.199,537.456 		"/>
		<polygon class="st1" points="682.717,522.111 682.717,557.763 661.341,578.806 658.781,581.327 658.781,581.319 637.692,602.742 
			625.976,602.742 625.976,602.884 604.553,623.973 604.561,623.973 602.04,626.533 602.04,578.806 658.781,578.806 
			658.781,522.111 		"/>
	</g>
	<g>
		<polygon class="st1" points="490.308,15.345 490.308,39.282 433.567,39.282 433.567,95.976 409.63,95.976 409.63,60.324 
			431.007,39.282 433.567,36.761 433.567,36.768 454.655,15.345 		"/>
		<polygon class="st1" points="546.174,0 546.174,35.652 524.797,56.695 522.237,59.216 522.237,59.209 501.149,80.631 
			489.433,80.631 489.433,80.774 468.01,101.862 468.017,101.862 465.496,104.422 465.496,56.695 522.237,56.695 522.237,0 		"/>
	</g>
	<g>
		<polygon class="st1" points="490.308,119.767 490.308,143.704 433.567,143.704 433.567,200.399 409.63,200.399 409.63,164.746 
			431.007,143.704 433.567,141.183 433.567,141.19 454.655,119.767 		"/>
		<polygon class="st1" points="546.174,104.422 546.174,140.075 524.797,161.117 522.237,163.638 522.237,163.631 501.149,185.054 
			489.433,185.054 489.433,185.196 468.01,206.284 468.017,206.284 465.496,208.844 465.496,161.117 522.237,161.117 
			522.237,104.422 		"/>
	</g>
	<g>
		<polygon class="st1" points="490.308,224.189 490.308,248.126 433.567,248.126 433.567,304.821 409.63,304.821 409.63,269.168 
			431.007,248.126 433.567,245.605 433.567,245.612 454.655,224.189 		"/>
		<polygon class="st1" points="546.174,208.844 546.174,244.497 524.797,265.539 522.237,268.06 522.237,268.053 501.149,289.476 
			489.433,289.476 489.433,289.618 468.01,310.706 468.017,310.706 465.496,313.267 465.496,265.539 522.237,265.539 
			522.237,208.844 		"/>
	</g>
	<g>
		<polygon class="st1" points="490.308,328.612 490.308,352.548 433.567,352.548 433.567,409.243 409.63,409.243 409.63,373.59 
			431.007,352.548 433.567,350.027 433.567,350.034 454.655,328.612 		"/>
		<polygon class="st1" points="546.174,313.267 546.174,348.919 524.797,369.961 522.237,372.482 522.237,372.475 501.149,393.898 
			489.433,393.898 489.433,394.04 468.01,415.129 468.017,415.129 465.496,417.689 465.496,369.961 522.237,369.961 
			522.237,313.267 		"/>
	</g>
	<g>
		<polygon class="st1" points="490.308,433.034 490.308,456.97 433.567,456.97 433.567,513.665 409.63,513.665 409.63,478.013 
			431.007,456.97 433.567,454.449 433.567,454.456 454.655,433.034 		"/>
		<polygon class="st1" points="546.174,417.689 546.174,453.341 524.797,474.383 522.237,476.904 522.237,476.897 501.149,498.32 
			489.433,498.32 489.433,498.462 468.01,519.551 468.017,519.551 465.496,522.111 465.496,474.383 522.237,474.383 
			522.237,417.689 		"/>
	</g>
	<g>
		<polygon class="st1" points="490.308,537.456 490.308,561.392 433.567,561.392 433.567,618.087 409.63,618.087 409.63,582.435 
			431.007,561.392 433.567,558.872 433.567,558.879 454.655,537.456 		"/>
		<polygon class="st1" points="546.174,522.111 546.174,557.763 524.797,578.806 522.237,581.327 522.237,581.319 501.149,602.742 
			489.433,602.742 489.433,602.884 468.01,623.973 468.017,623.973 465.496,626.533 465.496,578.806 522.237,578.806 
			522.237,522.111 		"/>
	</g>
	<g>
		<polygon class="st1" points="353.764,15.345 353.764,39.282 297.023,39.282 297.023,95.976 273.087,95.976 273.087,60.324 
			294.463,39.282 297.023,36.761 297.023,36.768 318.112,15.345 		"/>
		<polygon class="st1" points="409.63,0 409.63,35.652 388.254,56.695 385.694,59.216 385.694,59.209 364.605,80.631 
			352.889,80.631 352.889,80.774 331.467,101.862 331.474,101.862 328.953,104.422 328.953,56.695 385.694,56.695 385.694,0 		"/>
	</g>
	<g>
		<polygon class="st1" points="353.764,119.767 353.764,143.704 297.023,143.704 297.023,200.399 273.087,200.399 273.087,164.746 
			294.463,143.704 297.023,141.183 297.023,141.19 318.112,119.767 		"/>
		<polygon class="st1" points="409.63,104.422 409.63,140.075 388.254,161.117 385.694,163.638 385.694,163.631 364.605,185.054 
			352.889,185.054 352.889,185.196 331.467,206.284 331.474,206.284 328.953,208.844 328.953,161.117 385.694,161.117 
			385.694,104.422 		"/>
	</g>
	<g>
		<polygon class="st1" points="353.764,224.189 353.764,248.126 297.023,248.126 297.023,304.821 273.087,304.821 273.087,269.168 
			294.463,248.126 297.023,245.605 297.023,245.612 318.112,224.189 		"/>
		<polygon class="st1" points="409.63,208.844 409.63,244.497 388.254,265.539 385.694,268.06 385.694,268.053 364.605,289.476 
			352.889,289.476 352.889,289.618 331.467,310.706 331.474,310.706 328.953,313.267 328.953,265.539 385.694,265.539 
			385.694,208.844 		"/>
	</g>
	<g>
		<polygon class="st1" points="353.764,328.612 353.764,352.548 297.023,352.548 297.023,409.243 273.087,409.243 273.087,373.59 
			294.463,352.548 297.023,350.027 297.023,350.034 318.112,328.612 		"/>
		<polygon class="st1" points="409.63,313.267 409.63,348.919 388.254,369.961 385.694,372.482 385.694,372.475 364.605,393.898 
			352.889,393.898 352.889,394.04 331.467,415.129 331.474,415.129 328.953,417.689 328.953,369.961 385.694,369.961 
			385.694,313.267 		"/>
	</g>
	<g>
		<polygon class="st1" points="353.764,433.034 353.764,456.97 297.023,456.97 297.023,513.665 273.087,513.665 273.087,478.013 
			294.463,456.97 297.023,454.449 297.023,454.456 318.112,433.034 		"/>
		<polygon class="st1" points="409.63,417.689 409.63,453.341 388.254,474.383 385.694,476.904 385.694,476.897 364.605,498.32 
			352.889,498.32 352.889,498.462 331.467,519.551 331.474,519.551 328.953,522.111 328.953,474.383 385.694,474.383 
			385.694,417.689 		"/>
	</g>
	<g>
		<polygon class="st1" points="353.764,537.456 353.764,561.392 297.023,561.392 297.023,618.087 273.087,618.087 273.087,582.435 
			294.463,561.392 297.023,558.872 297.023,558.879 318.112,537.456 		"/>
		<polygon class="st1" points="409.63,522.111 409.63,557.763 388.254,578.806 385.694,581.327 385.694,581.319 364.605,602.742 
			352.889,602.742 352.889,602.884 331.467,623.973 331.474,623.973 328.953,626.533 328.953,578.806 385.694,578.806 
			385.694,522.111 		"/>
	</g>
	<g>
		<polygon class="st1" points="1309.569,15.345 1309.569,39.282 1252.828,39.282 1252.828,95.976 1228.891,95.976 1228.891,60.324 
			1250.268,39.282 1252.828,36.761 1252.828,36.768 1273.916,15.345 		"/>
		<polygon class="st1" points="1365.434,0 1365.434,35.652 1344.058,56.695 1341.498,59.216 1341.498,59.209 1320.409,80.631 
			1308.693,80.631 1308.693,80.774 1287.271,101.862 1287.278,101.862 1284.757,104.422 1284.757,56.695 1341.498,56.695 
			1341.498,0 		"/>
	</g>
	<g>
		<polygon class="st1" points="1309.569,119.767 1309.569,143.704 1252.828,143.704 1252.828,200.399 1228.891,200.399 
			1228.891,164.746 1250.268,143.704 1252.828,141.183 1252.828,141.19 1273.916,119.767 		"/>
		<polygon class="st1" points="1365.434,104.422 1365.434,140.075 1344.058,161.117 1341.498,163.638 1341.498,163.631 
			1320.409,185.054 1308.693,185.054 1308.693,185.196 1287.271,206.284 1287.278,206.284 1284.757,208.844 1284.757,161.117 
			1341.498,161.117 1341.498,104.422 		"/>
	</g>
	<g>
		<polygon class="st1" points="1309.569,224.189 1309.569,248.126 1252.828,248.126 1252.828,304.821 1228.891,304.821 
			1228.891,269.168 1250.268,248.126 1252.828,245.605 1252.828,245.612 1273.916,224.189 		"/>
		<polygon class="st1" points="1365.434,208.844 1365.434,244.497 1344.058,265.539 1341.498,268.06 1341.498,268.053 
			1320.409,289.476 1308.693,289.476 1308.693,289.618 1287.271,310.706 1287.278,310.706 1284.757,313.267 1284.757,265.539 
			1341.498,265.539 1341.498,208.844 		"/>
	</g>
	<g>
		<polygon class="st1" points="1309.569,328.612 1309.569,352.548 1252.828,352.548 1252.828,409.243 1228.891,409.243 
			1228.891,373.59 1250.268,352.548 1252.828,350.027 1252.828,350.034 1273.916,328.612 		"/>
		<polygon class="st1" points="1365.434,313.267 1365.434,348.919 1344.058,369.961 1341.498,372.482 1341.498,372.475 
			1320.409,393.898 1308.693,393.898 1308.693,394.04 1287.271,415.129 1287.278,415.129 1284.757,417.689 1284.757,369.961 
			1341.498,369.961 1341.498,313.267 		"/>
	</g>
	<g>
		<polygon class="st1" points="1309.569,433.034 1309.569,456.97 1252.828,456.97 1252.828,513.665 1228.891,513.665 
			1228.891,478.013 1250.268,456.97 1252.828,454.449 1252.828,454.456 1273.916,433.034 		"/>
		<polygon class="st1" points="1365.434,417.689 1365.434,453.341 1344.058,474.383 1341.498,476.904 1341.498,476.897 
			1320.409,498.32 1308.693,498.32 1308.693,498.462 1287.271,519.551 1287.278,519.551 1284.757,522.111 1284.757,474.383 
			1341.498,474.383 1341.498,417.689 		"/>
	</g>
	<g>
		<polygon class="st1" points="1309.569,537.456 1309.569,561.392 1252.828,561.392 1252.828,618.087 1228.891,618.087 
			1228.891,582.435 1250.268,561.392 1252.828,558.872 1252.828,558.879 1273.916,537.456 		"/>
		<polygon class="st1" points="1365.434,522.111 1365.434,557.763 1344.058,578.806 1341.498,581.327 1341.498,581.319 
			1320.409,602.742 1308.693,602.742 1308.693,602.884 1287.271,623.973 1287.278,623.973 1284.757,626.533 1284.757,578.806 
			1341.498,578.806 1341.498,522.111 		"/>
	</g>
	<g>
		<polygon class="st1" points="1173.025,15.345 1173.025,39.282 1116.284,39.282 1116.284,95.976 1092.348,95.976 1092.348,60.324 
			1113.724,39.282 1116.284,36.761 1116.284,36.768 1137.373,15.345 		"/>
		<polygon class="st1" points="1228.891,0 1228.891,35.652 1207.514,56.695 1204.954,59.216 1204.954,59.209 1183.866,80.631 
			1172.15,80.631 1172.15,80.774 1150.727,101.862 1150.734,101.862 1148.213,104.422 1148.213,56.695 1204.954,56.695 1204.954,0 
					"/>
	</g>
	<g>
		<polygon class="st1" points="1173.025,119.767 1173.025,143.704 1116.284,143.704 1116.284,200.399 1092.348,200.399 
			1092.348,164.746 1113.724,143.704 1116.284,141.183 1116.284,141.19 1137.373,119.767 		"/>
		<polygon class="st1" points="1228.891,104.422 1228.891,140.075 1207.514,161.117 1204.954,163.638 1204.954,163.631 
			1183.866,185.054 1172.15,185.054 1172.15,185.196 1150.727,206.284 1150.734,206.284 1148.213,208.844 1148.213,161.117 
			1204.954,161.117 1204.954,104.422 		"/>
	</g>
	<g>
		<polygon class="st1" points="1173.025,224.189 1173.025,248.126 1116.284,248.126 1116.284,304.821 1092.348,304.821 
			1092.348,269.168 1113.724,248.126 1116.284,245.605 1116.284,245.612 1137.373,224.189 		"/>
		<polygon class="st1" points="1228.891,208.844 1228.891,244.497 1207.514,265.539 1204.954,268.06 1204.954,268.053 
			1183.866,289.476 1172.15,289.476 1172.15,289.618 1150.727,310.706 1150.734,310.706 1148.213,313.267 1148.213,265.539 
			1204.954,265.539 1204.954,208.844 		"/>
	</g>
	<g>
		<polygon class="st1" points="1173.025,328.612 1173.025,352.548 1116.284,352.548 1116.284,409.243 1092.348,409.243 
			1092.348,373.59 1113.724,352.548 1116.284,350.027 1116.284,350.034 1137.373,328.612 		"/>
		<polygon class="st1" points="1228.891,313.267 1228.891,348.919 1207.514,369.961 1204.954,372.482 1204.954,372.475 
			1183.866,393.898 1172.15,393.898 1172.15,394.04 1150.727,415.129 1150.734,415.129 1148.213,417.689 1148.213,369.961 
			1204.954,369.961 1204.954,313.267 		"/>
	</g>
	<g>
		<polygon class="st1" points="1173.025,433.034 1173.025,456.97 1116.284,456.97 1116.284,513.665 1092.348,513.665 
			1092.348,478.013 1113.724,456.97 1116.284,454.449 1116.284,454.456 1137.373,433.034 		"/>
		<polygon class="st1" points="1228.891,417.689 1228.891,453.341 1207.514,474.383 1204.954,476.904 1204.954,476.897 
			1183.866,498.32 1172.15,498.32 1172.15,498.462 1150.727,519.551 1150.734,519.551 1148.213,522.111 1148.213,474.383 
			1204.954,474.383 1204.954,417.689 		"/>
	</g>
	<g>
		<polygon class="st1" points="1173.025,537.456 1173.025,561.392 1116.284,561.392 1116.284,618.087 1092.348,618.087 
			1092.348,582.435 1113.724,561.392 1116.284,558.872 1116.284,558.879 1137.373,537.456 		"/>
		<polygon class="st1" points="1228.891,522.111 1228.891,557.763 1207.514,578.806 1204.954,581.327 1204.954,581.319 
			1183.866,602.742 1172.15,602.742 1172.15,602.884 1150.727,623.973 1150.734,623.973 1148.213,626.533 1148.213,578.806 
			1204.954,578.806 1204.954,522.111 		"/>
	</g>
	<g>
		<polygon class="st1" points="1036.482,15.345 1036.482,39.282 979.741,39.282 979.741,95.976 955.804,95.976 955.804,60.324 
			977.181,39.282 979.741,36.761 979.741,36.768 1000.829,15.345 		"/>
		<polygon class="st1" points="1092.348,0 1092.348,35.652 1070.971,56.695 1068.411,59.216 1068.411,59.209 1047.322,80.631 
			1035.607,80.631 1035.607,80.774 1014.184,101.862 1014.191,101.862 1011.67,104.422 1011.67,56.695 1068.411,56.695 1068.411,0 
					"/>
	</g>
	<g>
		<polygon class="st1" points="1036.482,119.767 1036.482,143.704 979.741,143.704 979.741,200.399 955.804,200.399 
			955.804,164.746 977.181,143.704 979.741,141.183 979.741,141.19 1000.829,119.767 		"/>
		<polygon class="st1" points="1092.348,104.422 1092.348,140.075 1070.971,161.117 1068.411,163.638 1068.411,163.631 
			1047.322,185.054 1035.607,185.054 1035.607,185.196 1014.184,206.284 1014.191,206.284 1011.67,208.844 1011.67,161.117 
			1068.411,161.117 1068.411,104.422 		"/>
	</g>
	<g>
		<polygon class="st1" points="1036.482,224.189 1036.482,248.126 979.741,248.126 979.741,304.821 955.804,304.821 
			955.804,269.168 977.181,248.126 979.741,245.605 979.741,245.612 1000.829,224.189 		"/>
		<polygon class="st1" points="1092.348,208.844 1092.348,244.497 1070.971,265.539 1068.411,268.06 1068.411,268.053 
			1047.322,289.476 1035.607,289.476 1035.607,289.618 1014.184,310.706 1014.191,310.706 1011.67,313.267 1011.67,265.539 
			1068.411,265.539 1068.411,208.844 		"/>
	</g>
	<g>
		<polygon class="st1" points="1036.482,328.612 1036.482,352.548 979.741,352.548 979.741,409.243 955.804,409.243 955.804,373.59 
			977.181,352.548 979.741,350.027 979.741,350.034 1000.829,328.612 		"/>
		<polygon class="st1" points="1092.348,313.267 1092.348,348.919 1070.971,369.961 1068.411,372.482 1068.411,372.475 
			1047.322,393.898 1035.607,393.898 1035.607,394.04 1014.184,415.129 1014.191,415.129 1011.67,417.689 1011.67,369.961 
			1068.411,369.961 1068.411,313.267 		"/>
	</g>
	<g>
		<polygon class="st1" points="1036.482,433.034 1036.482,456.97 979.741,456.97 979.741,513.665 955.804,513.665 955.804,478.013 
			977.181,456.97 979.741,454.449 979.741,454.456 1000.829,433.034 		"/>
		<polygon class="st1" points="1092.348,417.689 1092.348,453.341 1070.971,474.383 1068.411,476.904 1068.411,476.897 
			1047.322,498.32 1035.607,498.32 1035.607,498.462 1014.184,519.551 1014.191,519.551 1011.67,522.111 1011.67,474.383 
			1068.411,474.383 1068.411,417.689 		"/>
	</g>
	<g>
		<polygon class="st1" points="1036.482,537.456 1036.482,561.392 979.741,561.392 979.741,618.087 955.804,618.087 
			955.804,582.435 977.181,561.392 979.741,558.872 979.741,558.879 1000.829,537.456 		"/>
		<polygon class="st1" points="1092.348,522.111 1092.348,557.763 1070.971,578.806 1068.411,581.327 1068.411,581.319 
			1047.322,602.742 1035.607,602.742 1035.607,602.884 1014.184,623.973 1014.191,623.973 1011.67,626.533 1011.67,578.806 
			1068.411,578.806 1068.411,522.111 		"/>
	</g>
	<g>
		<polygon class="st1" points="899.938,15.345 899.938,39.282 843.197,39.282 843.197,95.976 819.261,95.976 819.261,60.324 
			840.637,39.282 843.197,36.761 843.197,36.768 864.286,15.345 		"/>
		<polygon class="st1" points="955.804,0 955.804,35.652 934.428,56.695 931.867,59.216 931.867,59.209 910.779,80.631 
			899.063,80.631 899.063,80.774 877.64,101.862 877.647,101.862 875.127,104.422 875.127,56.695 931.867,56.695 931.867,0 		"/>
	</g>
	<g>
		<polygon class="st1" points="899.938,119.767 899.938,143.704 843.197,143.704 843.197,200.399 819.261,200.399 819.261,164.746 
			840.637,143.704 843.197,141.183 843.197,141.19 864.286,119.767 		"/>
		<polygon class="st1" points="955.804,104.422 955.804,140.075 934.428,161.117 931.867,163.638 931.867,163.631 910.779,185.054 
			899.063,185.054 899.063,185.196 877.64,206.284 877.647,206.284 875.127,208.844 875.127,161.117 931.867,161.117 
			931.867,104.422 		"/>
	</g>
	<g>
		<polygon class="st1" points="899.938,224.189 899.938,248.126 843.197,248.126 843.197,304.821 819.261,304.821 819.261,269.168 
			840.637,248.126 843.197,245.605 843.197,245.612 864.286,224.189 		"/>
		<polygon class="st1" points="955.804,208.844 955.804,244.497 934.428,265.539 931.867,268.06 931.867,268.053 910.779,289.476 
			899.063,289.476 899.063,289.618 877.64,310.706 877.647,310.706 875.127,313.267 875.127,265.539 931.867,265.539 
			931.867,208.844 		"/>
	</g>
	<g>
		<polygon class="st1" points="899.938,328.612 899.938,352.548 843.197,352.548 843.197,409.243 819.261,409.243 819.261,373.59 
			840.637,352.548 843.197,350.027 843.197,350.034 864.286,328.612 		"/>
		<polygon class="st1" points="955.804,313.267 955.804,348.919 934.428,369.961 931.867,372.482 931.867,372.475 910.779,393.898 
			899.063,393.898 899.063,394.04 877.64,415.129 877.647,415.129 875.127,417.689 875.127,369.961 931.867,369.961 
			931.867,313.267 		"/>
	</g>
	<g>
		<polygon class="st1" points="899.938,433.034 899.938,456.97 843.197,456.97 843.197,513.665 819.261,513.665 819.261,478.013 
			840.637,456.97 843.197,454.449 843.197,454.456 864.286,433.034 		"/>
		<polygon class="st1" points="955.804,417.689 955.804,453.341 934.428,474.383 931.867,476.904 931.867,476.897 910.779,498.32 
			899.063,498.32 899.063,498.462 877.64,519.551 877.647,519.551 875.127,522.111 875.127,474.383 931.867,474.383 
			931.867,417.689 		"/>
	</g>
	<g>
		<polygon class="st1" points="899.938,537.456 899.938,561.392 843.197,561.392 843.197,618.087 819.261,618.087 819.261,582.435 
			840.637,561.392 843.197,558.872 843.197,558.879 864.286,537.456 		"/>
		<polygon class="st1" points="955.804,522.111 955.804,557.763 934.428,578.806 931.867,581.327 931.867,581.319 910.779,602.742 
			899.063,602.742 899.063,602.884 877.64,623.973 877.647,623.973 875.127,626.533 875.127,578.806 931.867,578.806 
			931.867,522.111 		"/>
	</g>
	<g>
		<polygon class="st1" points="217.221,15.345 217.221,39.282 160.48,39.282 160.48,95.976 136.543,95.976 136.543,60.324 
			157.92,39.282 160.48,36.761 160.48,36.768 181.569,15.345 		"/>
		<polygon class="st1" points="273.087,0 273.087,35.652 251.71,56.695 249.15,59.216 249.15,59.209 228.062,80.631 216.346,80.631 
			216.346,80.774 194.923,101.862 194.93,101.862 192.409,104.422 192.409,56.695 249.15,56.695 249.15,0 		"/>
	</g>
	<g>
		<polygon class="st1" points="217.221,119.767 217.221,143.704 160.48,143.704 160.48,200.399 136.543,200.399 136.543,164.746 
			157.92,143.704 160.48,141.183 160.48,141.19 181.569,119.767 		"/>
		<polygon class="st1" points="273.087,104.422 273.087,140.075 251.71,161.117 249.15,163.638 249.15,163.631 228.062,185.054 
			216.346,185.054 216.346,185.196 194.923,206.284 194.93,206.284 192.409,208.844 192.409,161.117 249.15,161.117 249.15,104.422 
					"/>
	</g>
	<g>
		<polygon class="st1" points="217.221,224.189 217.221,248.126 160.48,248.126 160.48,304.821 136.543,304.821 136.543,269.168 
			157.92,248.126 160.48,245.605 160.48,245.612 181.569,224.189 		"/>
		<polygon class="st1" points="273.087,208.844 273.087,244.497 251.71,265.539 249.15,268.06 249.15,268.053 228.062,289.476 
			216.346,289.476 216.346,289.618 194.923,310.706 194.93,310.706 192.409,313.267 192.409,265.539 249.15,265.539 249.15,208.844 
					"/>
	</g>
	<g>
		<polygon class="st1" points="217.221,328.612 217.221,352.548 160.48,352.548 160.48,409.243 136.543,409.243 136.543,373.59 
			157.92,352.548 160.48,350.027 160.48,350.034 181.569,328.612 		"/>
		<polygon class="st1" points="273.087,313.267 273.087,348.919 251.71,369.961 249.15,372.482 249.15,372.475 228.062,393.898 
			216.346,393.898 216.346,394.04 194.923,415.129 194.93,415.129 192.409,417.689 192.409,369.961 249.15,369.961 249.15,313.267 
					"/>
	</g>
	<g>
		<polygon class="st1" points="217.221,433.034 217.221,456.97 160.48,456.97 160.48,513.665 136.543,513.665 136.543,478.013 
			157.92,456.97 160.48,454.449 160.48,454.456 181.569,433.034 		"/>
		<polygon class="st1" points="273.087,417.689 273.087,453.341 251.71,474.383 249.15,476.904 249.15,476.897 228.062,498.32 
			216.346,498.32 216.346,498.462 194.923,519.551 194.93,519.551 192.409,522.111 192.409,474.383 249.15,474.383 249.15,417.689 
					"/>
	</g>
	<g>
		<polygon class="st1" points="217.221,537.456 217.221,561.392 160.48,561.392 160.48,618.087 136.543,618.087 136.543,582.435 
			157.92,561.392 160.48,558.872 160.48,558.879 181.569,537.456 		"/>
		<polygon class="st1" points="273.087,522.111 273.087,557.763 251.71,578.806 249.15,581.327 249.15,581.319 228.062,602.742 
			216.346,602.742 216.346,602.884 194.923,623.973 194.93,623.973 192.409,626.533 192.409,578.806 249.15,578.806 249.15,522.111 
					"/>
	</g>
	<g>
		<polygon class="st1" points="80.678,15.345 80.678,39.282 23.937,39.282 23.937,95.976 0,95.976 0,60.324 21.377,39.282 
			23.937,36.761 23.937,36.768 45.025,15.345 		"/>
		<polygon class="st1" points="136.543,0 136.543,35.652 115.167,56.695 112.607,59.216 112.607,59.209 91.518,80.631 
			79.802,80.631 79.802,80.774 58.38,101.862 58.387,101.862 55.866,104.422 55.866,56.695 112.607,56.695 112.607,0 		"/>
	</g>
	<g>
		<polygon class="st1" points="80.678,119.767 80.678,143.704 23.937,143.704 23.937,200.399 0,200.399 0,164.746 21.377,143.704 
			23.937,141.183 23.937,141.19 45.025,119.767 		"/>
		<polygon class="st1" points="136.543,104.422 136.543,140.075 115.167,161.117 112.607,163.638 112.607,163.631 91.518,185.054 
			79.802,185.054 79.802,185.196 58.38,206.284 58.387,206.284 55.866,208.844 55.866,161.117 112.607,161.117 112.607,104.422 		
			"/>
	</g>
	<g>
		<polygon class="st1" points="80.678,224.189 80.678,248.126 23.937,248.126 23.937,304.821 0,304.821 0,269.168 21.377,248.126 
			23.937,245.605 23.937,245.612 45.025,224.189 		"/>
		<polygon class="st1" points="136.543,208.844 136.543,244.497 115.167,265.539 112.607,268.06 112.607,268.053 91.518,289.476 
			79.802,289.476 79.802,289.618 58.38,310.706 58.387,310.706 55.866,313.267 55.866,265.539 112.607,265.539 112.607,208.844 		
			"/>
	</g>
	<g>
		<polygon class="st1" points="80.678,328.612 80.678,352.548 23.937,352.548 23.937,409.243 0,409.243 0,373.59 21.377,352.548 
			23.937,350.027 23.937,350.034 45.025,328.612 		"/>
		<polygon class="st1" points="136.543,313.267 136.543,348.919 115.167,369.961 112.607,372.482 112.607,372.475 91.518,393.898 
			79.802,393.898 79.802,394.04 58.38,415.129 58.387,415.129 55.866,417.689 55.866,369.961 112.607,369.961 112.607,313.267 		"/>
	</g>
	<g>
		<polygon class="st1" points="80.678,433.034 80.678,456.97 23.937,456.97 23.937,513.665 0,513.665 0,478.013 21.377,456.97 
			23.937,454.449 23.937,454.456 45.025,433.034 		"/>
		<polygon class="st1" points="136.543,417.689 136.543,453.341 115.167,474.383 112.607,476.904 112.607,476.897 91.518,498.32 
			79.802,498.32 79.802,498.462 58.38,519.551 58.387,519.551 55.866,522.111 55.866,474.383 112.607,474.383 112.607,417.689 		"/>
	</g>
	<g>
		<polygon class="st1" points="80.678,537.456 80.678,561.392 23.937,561.392 23.937,618.087 0,618.087 0,582.435 21.377,561.392 
			23.937,558.872 23.937,558.879 45.025,537.456 		"/>
		<polygon class="st1" points="136.543,522.111 136.543,557.763 115.167,578.806 112.607,581.327 112.607,581.319 91.518,602.742 
			79.802,602.742 79.802,602.884 58.38,623.973 58.387,623.973 55.866,626.533 55.866,578.806 112.607,578.806 112.607,522.111 		
			"/>
	</g>
	<g>
		<polygon class="st1" points="763.395,641.878 763.395,665.815 706.654,665.815 706.654,722.509 682.717,722.509 682.717,686.857 
			704.094,665.815 706.654,663.294 706.654,663.301 727.742,641.878 		"/>
		<polygon class="st1" points="819.261,626.533 819.261,662.185 797.884,683.228 795.324,685.749 795.324,685.742 774.236,707.164 
			762.52,707.164 762.52,707.307 741.097,728.395 741.104,728.395 738.583,730.955 738.583,683.228 795.324,683.228 
			795.324,626.533 		"/>
	</g>
	<g>
		<polygon class="st1" points="763.395,746.3 763.395,770.237 706.654,770.237 706.654,826.932 682.717,826.932 682.717,791.279 
			704.094,770.237 706.654,767.716 706.654,767.723 727.742,746.3 		"/>
		<polygon class="st1" points="819.261,730.955 819.261,766.608 797.884,787.65 795.324,790.171 795.324,790.164 774.236,811.587 
			762.52,811.587 762.52,811.729 741.097,832.817 741.104,832.817 738.583,835.377 738.583,787.65 795.324,787.65 795.324,730.955 
					"/>
	</g>
	<g>
		<polygon class="st1" points="763.395,850.722 763.395,874.659 706.654,874.659 706.654,931.354 682.717,931.354 682.717,895.701 
			704.094,874.659 706.654,872.138 706.654,872.145 727.742,850.722 		"/>
		<polygon class="st1" points="819.261,835.377 819.261,871.03 797.884,892.072 795.324,894.593 795.324,894.586 774.236,916.009 
			762.52,916.009 762.52,916.151 741.097,937.24 741.104,937.24 738.583,939.8 738.583,892.072 795.324,892.072 795.324,835.377 		
			"/>
	</g>
	<g>
		<polygon class="st1" points="763.395,955.145 763.395,979.081 706.654,979.081 706.654,1035.776 682.717,1035.776 
			682.717,1000.123 704.094,979.081 706.654,976.56 706.654,976.567 727.742,955.145 		"/>
		<polygon class="st1" points="819.261,939.8 819.261,975.452 797.884,996.494 795.324,999.015 795.324,999.008 774.236,1020.431 
			762.52,1020.431 762.52,1020.573 741.097,1041.662 741.104,1041.662 738.583,1044.222 738.583,996.494 795.324,996.494 
			795.324,939.8 		"/>
	</g>
	<g>
		<polygon class="st1" points="626.851,641.878 626.851,665.815 570.11,665.815 570.11,722.509 546.174,722.509 546.174,686.857 
			567.55,665.815 570.11,663.294 570.11,663.301 591.199,641.878 		"/>
		<polygon class="st1" points="682.717,626.533 682.717,662.185 661.341,683.228 658.781,685.749 658.781,685.742 637.692,707.164 
			625.976,707.164 625.976,707.307 604.553,728.395 604.561,728.395 602.04,730.955 602.04,683.228 658.781,683.228 
			658.781,626.533 		"/>
	</g>
	<g>
		<polygon class="st1" points="626.851,746.3 626.851,770.237 570.11,770.237 570.11,826.932 546.174,826.932 546.174,791.279 
			567.55,770.237 570.11,767.716 570.11,767.723 591.199,746.3 		"/>
		<polygon class="st1" points="682.717,730.955 682.717,766.608 661.341,787.65 658.781,790.171 658.781,790.164 637.692,811.587 
			625.976,811.587 625.976,811.729 604.553,832.817 604.561,832.817 602.04,835.377 602.04,787.65 658.781,787.65 658.781,730.955 
					"/>
	</g>
	<g>
		<polygon class="st1" points="626.851,850.722 626.851,874.659 570.11,874.659 570.11,931.354 546.174,931.354 546.174,895.701 
			567.55,874.659 570.11,872.138 570.11,872.145 591.199,850.722 		"/>
		<polygon class="st1" points="682.717,835.377 682.717,871.03 661.341,892.072 658.781,894.593 658.781,894.586 637.692,916.009 
			625.976,916.009 625.976,916.151 604.553,937.24 604.561,937.24 602.04,939.8 602.04,892.072 658.781,892.072 658.781,835.377 		
			"/>
	</g>
	<g>
		<polygon class="st1" points="626.851,955.145 626.851,979.081 570.11,979.081 570.11,1035.776 546.174,1035.776 546.174,1000.123 
			567.55,979.081 570.11,976.56 570.11,976.567 591.199,955.145 		"/>
		<polygon class="st1" points="682.717,939.8 682.717,975.452 661.341,996.494 658.781,999.015 658.781,999.008 637.692,1020.431 
			625.976,1020.431 625.976,1020.573 604.553,1041.662 604.561,1041.662 602.04,1044.222 602.04,996.494 658.781,996.494 
			658.781,939.8 		"/>
	</g>
	<g>
		<polygon class="st1" points="490.308,641.878 490.308,665.815 433.567,665.815 433.567,722.509 409.63,722.509 409.63,686.857 
			431.007,665.815 433.567,663.294 433.567,663.301 454.655,641.878 		"/>
		<polygon class="st1" points="546.174,626.533 546.174,662.185 524.797,683.228 522.237,685.749 522.237,685.742 501.149,707.164 
			489.433,707.164 489.433,707.307 468.01,728.395 468.017,728.395 465.496,730.955 465.496,683.228 522.237,683.228 
			522.237,626.533 		"/>
	</g>
	<g>
		<polygon class="st1" points="490.308,746.3 490.308,770.237 433.567,770.237 433.567,826.932 409.63,826.932 409.63,791.279 
			431.007,770.237 433.567,767.716 433.567,767.723 454.655,746.3 		"/>
		<polygon class="st1" points="546.174,730.955 546.174,766.608 524.797,787.65 522.237,790.171 522.237,790.164 501.149,811.587 
			489.433,811.587 489.433,811.729 468.01,832.817 468.017,832.817 465.496,835.377 465.496,787.65 522.237,787.65 522.237,730.955 
					"/>
	</g>
	<g>
		<polygon class="st1" points="490.308,850.722 490.308,874.659 433.567,874.659 433.567,931.354 409.63,931.354 409.63,895.701 
			431.007,874.659 433.567,872.138 433.567,872.145 454.655,850.722 		"/>
		<polygon class="st1" points="546.174,835.377 546.174,871.03 524.797,892.072 522.237,894.593 522.237,894.586 501.149,916.009 
			489.433,916.009 489.433,916.151 468.01,937.24 468.017,937.24 465.496,939.8 465.496,892.072 522.237,892.072 522.237,835.377 		
			"/>
	</g>
	<g>
		<polygon class="st1" points="490.308,955.145 490.308,979.081 433.567,979.081 433.567,1035.776 409.63,1035.776 409.63,1000.123 
			431.007,979.081 433.567,976.56 433.567,976.567 454.655,955.145 		"/>
		<polygon class="st1" points="546.174,939.8 546.174,975.452 524.797,996.494 522.237,999.015 522.237,999.008 501.149,1020.431 
			489.433,1020.431 489.433,1020.573 468.01,1041.662 468.017,1041.662 465.496,1044.222 465.496,996.494 522.237,996.494 
			522.237,939.8 		"/>
	</g>
	<g>
		<polygon class="st1" points="353.764,641.878 353.764,665.815 297.023,665.815 297.023,722.509 273.087,722.509 273.087,686.857 
			294.463,665.815 297.023,663.294 297.023,663.301 318.112,641.878 		"/>
		<polygon class="st1" points="409.63,626.533 409.63,662.185 388.254,683.228 385.694,685.749 385.694,685.742 364.605,707.164 
			352.889,707.164 352.889,707.307 331.467,728.395 331.474,728.395 328.953,730.955 328.953,683.228 385.694,683.228 
			385.694,626.533 		"/>
	</g>
	<g>
		<polygon class="st1" points="353.764,746.3 353.764,770.237 297.023,770.237 297.023,826.932 273.087,826.932 273.087,791.279 
			294.463,770.237 297.023,767.716 297.023,767.723 318.112,746.3 		"/>
		<polygon class="st1" points="409.63,730.955 409.63,766.608 388.254,787.65 385.694,790.171 385.694,790.164 364.605,811.587 
			352.889,811.587 352.889,811.729 331.467,832.817 331.474,832.817 328.953,835.377 328.953,787.65 385.694,787.65 
			385.694,730.955 		"/>
	</g>
	<g>
		<polygon class="st1" points="353.764,850.722 353.764,874.659 297.023,874.659 297.023,931.354 273.087,931.354 273.087,895.701 
			294.463,874.659 297.023,872.138 297.023,872.145 318.112,850.722 		"/>
		<polygon class="st1" points="409.63,835.377 409.63,871.03 388.254,892.072 385.694,894.593 385.694,894.586 364.605,916.009 
			352.889,916.009 352.889,916.151 331.467,937.24 331.474,937.24 328.953,939.8 328.953,892.072 385.694,892.072 385.694,835.377 
					"/>
	</g>
	<g>
		<polygon class="st1" points="353.764,955.145 353.764,979.081 297.023,979.081 297.023,1035.776 273.087,1035.776 
			273.087,1000.123 294.463,979.081 297.023,976.56 297.023,976.567 318.112,955.145 		"/>
		<polygon class="st1" points="409.63,939.8 409.63,975.452 388.254,996.494 385.694,999.015 385.694,999.008 364.605,1020.431 
			352.889,1020.431 352.889,1020.573 331.467,1041.662 331.474,1041.662 328.953,1044.222 328.953,996.494 385.694,996.494 
			385.694,939.8 		"/>
	</g>
	<g>
		<polygon class="st1" points="1309.569,641.878 1309.569,665.815 1252.828,665.815 1252.828,722.509 1228.891,722.509 
			1228.891,686.857 1250.268,665.815 1252.828,663.294 1252.828,663.301 1273.916,641.878 		"/>
		<polygon class="st1" points="1365.434,626.533 1365.434,662.185 1344.058,683.228 1341.498,685.749 1341.498,685.742 
			1320.409,707.164 1308.693,707.164 1308.693,707.307 1287.271,728.395 1287.278,728.395 1284.757,730.955 1284.757,683.228 
			1341.498,683.228 1341.498,626.533 		"/>
	</g>
	<g>
		<polygon class="st1" points="1309.569,746.3 1309.569,770.237 1252.828,770.237 1252.828,826.932 1228.891,826.932 
			1228.891,791.279 1250.268,770.237 1252.828,767.716 1252.828,767.723 1273.916,746.3 		"/>
		<polygon class="st1" points="1365.434,730.955 1365.434,766.608 1344.058,787.65 1341.498,790.171 1341.498,790.164 
			1320.409,811.587 1308.693,811.587 1308.693,811.729 1287.271,832.817 1287.278,832.817 1284.757,835.377 1284.757,787.65 
			1341.498,787.65 1341.498,730.955 		"/>
	</g>
	<g>
		<polygon class="st1" points="1309.569,850.722 1309.569,874.659 1252.828,874.659 1252.828,931.354 1228.891,931.354 
			1228.891,895.701 1250.268,874.659 1252.828,872.138 1252.828,872.145 1273.916,850.722 		"/>
		<polygon class="st1" points="1365.434,835.377 1365.434,871.03 1344.058,892.072 1341.498,894.593 1341.498,894.586 
			1320.409,916.009 1308.693,916.009 1308.693,916.151 1287.271,937.24 1287.278,937.24 1284.757,939.8 1284.757,892.072 
			1341.498,892.072 1341.498,835.377 		"/>
	</g>
	<g>
		<polygon class="st1" points="1309.569,955.145 1309.569,979.081 1252.828,979.081 1252.828,1035.776 1228.891,1035.776 
			1228.891,1000.123 1250.268,979.081 1252.828,976.56 1252.828,976.567 1273.916,955.145 		"/>
		<polygon class="st1" points="1365.434,939.8 1365.434,975.452 1344.058,996.494 1341.498,999.015 1341.498,999.008 
			1320.409,1020.431 1308.693,1020.431 1308.693,1020.573 1287.271,1041.662 1287.278,1041.662 1284.757,1044.222 1284.757,996.494 
			1341.498,996.494 1341.498,939.8 		"/>
	</g>
	<g>
		<polygon class="st1" points="1173.025,641.878 1173.025,665.815 1116.284,665.815 1116.284,722.509 1092.348,722.509 
			1092.348,686.857 1113.724,665.815 1116.284,663.294 1116.284,663.301 1137.373,641.878 		"/>
		<polygon class="st1" points="1228.891,626.533 1228.891,662.185 1207.514,683.228 1204.954,685.749 1204.954,685.742 
			1183.866,707.164 1172.15,707.164 1172.15,707.307 1150.727,728.395 1150.734,728.395 1148.213,730.955 1148.213,683.228 
			1204.954,683.228 1204.954,626.533 		"/>
	</g>
	<g>
		<polygon class="st1" points="1173.025,746.3 1173.025,770.237 1116.284,770.237 1116.284,826.932 1092.348,826.932 
			1092.348,791.279 1113.724,770.237 1116.284,767.716 1116.284,767.723 1137.373,746.3 		"/>
		<polygon class="st1" points="1228.891,730.955 1228.891,766.608 1207.514,787.65 1204.954,790.171 1204.954,790.164 
			1183.866,811.587 1172.15,811.587 1172.15,811.729 1150.727,832.817 1150.734,832.817 1148.213,835.377 1148.213,787.65 
			1204.954,787.65 1204.954,730.955 		"/>
	</g>
	<g>
		<polygon class="st1" points="1173.025,850.722 1173.025,874.659 1116.284,874.659 1116.284,931.354 1092.348,931.354 
			1092.348,895.701 1113.724,874.659 1116.284,872.138 1116.284,872.145 1137.373,850.722 		"/>
		<polygon class="st1" points="1228.891,835.377 1228.891,871.03 1207.514,892.072 1204.954,894.593 1204.954,894.586 
			1183.866,916.009 1172.15,916.009 1172.15,916.151 1150.727,937.24 1150.734,937.24 1148.213,939.8 1148.213,892.072 
			1204.954,892.072 1204.954,835.377 		"/>
	</g>
	<g>
		<polygon class="st1" points="1173.025,955.145 1173.025,979.081 1116.284,979.081 1116.284,1035.776 1092.348,1035.776 
			1092.348,1000.123 1113.724,979.081 1116.284,976.56 1116.284,976.567 1137.373,955.145 		"/>
		<polygon class="st1" points="1228.891,939.8 1228.891,975.452 1207.514,996.494 1204.954,999.015 1204.954,999.008 
			1183.866,1020.431 1172.15,1020.431 1172.15,1020.573 1150.727,1041.662 1150.734,1041.662 1148.213,1044.222 1148.213,996.494 
			1204.954,996.494 1204.954,939.8 		"/>
	</g>
	<g>
		<polygon class="st1" points="1036.482,641.878 1036.482,665.815 979.741,665.815 979.741,722.509 955.804,722.509 
			955.804,686.857 977.181,665.815 979.741,663.294 979.741,663.301 1000.829,641.878 		"/>
		<polygon class="st1" points="1092.348,626.533 1092.348,662.185 1070.971,683.228 1068.411,685.749 1068.411,685.742 
			1047.322,707.164 1035.607,707.164 1035.607,707.307 1014.184,728.395 1014.191,728.395 1011.67,730.955 1011.67,683.228 
			1068.411,683.228 1068.411,626.533 		"/>
	</g>
	<g>
		<polygon class="st1" points="1036.482,746.3 1036.482,770.237 979.741,770.237 979.741,826.932 955.804,826.932 955.804,791.279 
			977.181,770.237 979.741,767.716 979.741,767.723 1000.829,746.3 		"/>
		<polygon class="st1" points="1092.348,730.955 1092.348,766.608 1070.971,787.65 1068.411,790.171 1068.411,790.164 
			1047.322,811.587 1035.607,811.587 1035.607,811.729 1014.184,832.817 1014.191,832.817 1011.67,835.377 1011.67,787.65 
			1068.411,787.65 1068.411,730.955 		"/>
	</g>
	<g>
		<polygon class="st1" points="1036.482,850.722 1036.482,874.659 979.741,874.659 979.741,931.354 955.804,931.354 
			955.804,895.701 977.181,874.659 979.741,872.138 979.741,872.145 1000.829,850.722 		"/>
		<polygon class="st1" points="1092.348,835.377 1092.348,871.03 1070.971,892.072 1068.411,894.593 1068.411,894.586 
			1047.322,916.009 1035.607,916.009 1035.607,916.151 1014.184,937.24 1014.191,937.24 1011.67,939.8 1011.67,892.072 
			1068.411,892.072 1068.411,835.377 		"/>
	</g>
	<g>
		<polygon class="st1" points="1036.482,955.145 1036.482,979.081 979.741,979.081 979.741,1035.776 955.804,1035.776 
			955.804,1000.123 977.181,979.081 979.741,976.56 979.741,976.567 1000.829,955.145 		"/>
		<polygon class="st1" points="1092.348,939.8 1092.348,975.452 1070.971,996.494 1068.411,999.015 1068.411,999.008 
			1047.322,1020.431 1035.607,1020.431 1035.607,1020.573 1014.184,1041.662 1014.191,1041.662 1011.67,1044.222 1011.67,996.494 
			1068.411,996.494 1068.411,939.8 		"/>
	</g>
	<g>
		<polygon class="st1" points="899.938,641.878 899.938,665.815 843.197,665.815 843.197,722.509 819.261,722.509 819.261,686.857 
			840.637,665.815 843.197,663.294 843.197,663.301 864.286,641.878 		"/>
		<polygon class="st1" points="955.804,626.533 955.804,662.185 934.428,683.228 931.867,685.749 931.867,685.742 910.779,707.164 
			899.063,707.164 899.063,707.307 877.64,728.395 877.647,728.395 875.127,730.955 875.127,683.228 931.867,683.228 
			931.867,626.533 		"/>
	</g>
	<g>
		<polygon class="st1" points="899.938,746.3 899.938,770.237 843.197,770.237 843.197,826.932 819.261,826.932 819.261,791.279 
			840.637,770.237 843.197,767.716 843.197,767.723 864.286,746.3 		"/>
		<polygon class="st1" points="955.804,730.955 955.804,766.608 934.428,787.65 931.867,790.171 931.867,790.164 910.779,811.587 
			899.063,811.587 899.063,811.729 877.64,832.817 877.647,832.817 875.127,835.377 875.127,787.65 931.867,787.65 931.867,730.955 
					"/>
	</g>
	<g>
		<polygon class="st1" points="899.938,850.722 899.938,874.659 843.197,874.659 843.197,931.354 819.261,931.354 819.261,895.701 
			840.637,874.659 843.197,872.138 843.197,872.145 864.286,850.722 		"/>
		<polygon class="st1" points="955.804,835.377 955.804,871.03 934.428,892.072 931.867,894.593 931.867,894.586 910.779,916.009 
			899.063,916.009 899.063,916.151 877.64,937.24 877.647,937.24 875.127,939.8 875.127,892.072 931.867,892.072 931.867,835.377 		
			"/>
	</g>
	<g>
		<polygon class="st1" points="899.938,955.145 899.938,979.081 843.197,979.081 843.197,1035.776 819.261,1035.776 
			819.261,1000.123 840.637,979.081 843.197,976.56 843.197,976.567 864.286,955.145 		"/>
		<polygon class="st1" points="955.804,939.8 955.804,975.452 934.428,996.494 931.867,999.015 931.867,999.008 910.779,1020.431 
			899.063,1020.431 899.063,1020.573 877.64,1041.662 877.647,1041.662 875.127,1044.222 875.127,996.494 931.867,996.494 
			931.867,939.8 		"/>
	</g>
	<g>
		<polygon class="st1" points="217.221,641.878 217.221,665.815 160.48,665.815 160.48,722.509 136.543,722.509 136.543,686.857 
			157.92,665.815 160.48,663.294 160.48,663.301 181.569,641.878 		"/>
		<polygon class="st1" points="273.087,626.533 273.087,662.185 251.71,683.228 249.15,685.749 249.15,685.742 228.062,707.164 
			216.346,707.164 216.346,707.307 194.923,728.395 194.93,728.395 192.409,730.955 192.409,683.228 249.15,683.228 249.15,626.533 
					"/>
	</g>
	<g>
		<polygon class="st1" points="217.221,746.3 217.221,770.237 160.48,770.237 160.48,826.932 136.543,826.932 136.543,791.279 
			157.92,770.237 160.48,767.716 160.48,767.723 181.569,746.3 		"/>
		<polygon class="st1" points="273.087,730.955 273.087,766.608 251.71,787.65 249.15,790.171 249.15,790.164 228.062,811.587 
			216.346,811.587 216.346,811.729 194.923,832.817 194.93,832.817 192.409,835.377 192.409,787.65 249.15,787.65 249.15,730.955 		
			"/>
	</g>
	<g>
		<polygon class="st1" points="217.221,850.722 217.221,874.659 160.48,874.659 160.48,931.354 136.543,931.354 136.543,895.701 
			157.92,874.659 160.48,872.138 160.48,872.145 181.569,850.722 		"/>
		<polygon class="st1" points="273.087,835.377 273.087,871.03 251.71,892.072 249.15,894.593 249.15,894.586 228.062,916.009 
			216.346,916.009 216.346,916.151 194.923,937.24 194.93,937.24 192.409,939.8 192.409,892.072 249.15,892.072 249.15,835.377 		
			"/>
	</g>
	<g>
		<polygon class="st1" points="217.221,955.145 217.221,979.081 160.48,979.081 160.48,1035.776 136.543,1035.776 136.543,1000.123 
			157.92,979.081 160.48,976.56 160.48,976.567 181.569,955.145 		"/>
		<polygon class="st1" points="273.087,939.8 273.087,975.452 251.71,996.494 249.15,999.015 249.15,999.008 228.062,1020.431 
			216.346,1020.431 216.346,1020.573 194.923,1041.662 194.93,1041.662 192.409,1044.222 192.409,996.494 249.15,996.494 
			249.15,939.8 		"/>
	</g>
	<g>
		<polygon class="st1" points="80.678,641.878 80.678,665.815 23.937,665.815 23.937,722.509 0,722.509 0,686.857 21.377,665.815 
			23.937,663.294 23.937,663.301 45.025,641.878 		"/>
		<polygon class="st1" points="136.543,626.533 136.543,662.185 115.167,683.228 112.607,685.749 112.607,685.742 91.518,707.164 
			79.802,707.164 79.802,707.307 58.38,728.395 58.387,728.395 55.866,730.955 55.866,683.228 112.607,683.228 112.607,626.533 		
			"/>
	</g>
	<g>
		<polygon class="st1" points="80.678,746.3 80.678,770.237 23.937,770.237 23.937,826.932 0,826.932 0,791.279 21.377,770.237 
			23.937,767.716 23.937,767.723 45.025,746.3 		"/>
		<polygon class="st1" points="136.543,730.955 136.543,766.608 115.167,787.65 112.607,790.171 112.607,790.164 91.518,811.587 
			79.802,811.587 79.802,811.729 58.38,832.817 58.387,832.817 55.866,835.377 55.866,787.65 112.607,787.65 112.607,730.955 		"/>
	</g>
	<g>
		<polygon class="st1" points="80.678,850.722 80.678,874.659 23.937,874.659 23.937,931.354 0,931.354 0,895.701 21.377,874.659 
			23.937,872.138 23.937,872.145 45.025,850.722 		"/>
		<polygon class="st1" points="136.543,835.377 136.543,871.03 115.167,892.072 112.607,894.593 112.607,894.586 91.518,916.009 
			79.802,916.009 79.802,916.151 58.38,937.24 58.387,937.24 55.866,939.8 55.866,892.072 112.607,892.072 112.607,835.377 		"/>
	</g>
	<g>
		<polygon class="st1" points="80.678,955.145 80.678,979.081 23.937,979.081 23.937,1035.776 0,1035.776 0,1000.123 
			21.377,979.081 23.937,976.56 23.937,976.567 45.025,955.145 		"/>
		<polygon class="st1" points="136.543,939.8 136.543,975.452 115.167,996.494 112.607,999.015 112.607,999.008 91.518,1020.431 
			79.802,1020.431 79.802,1020.573 58.38,1041.662 58.387,1041.662 55.866,1044.222 55.866,996.494 112.607,996.494 112.607,939.8 
					"/>
	</g>
</g>
</svg>
