<?xml version="1.0" encoding="utf-8"?>
<!-- Generator: Adobe Illustrator 24.3.0, SVG Export Plug-In . SVG Version: 6.00 Build 0)  -->
<svg version="1.1" id="Calque_1" xmlns="http://www.w3.org/2000/svg" xmlns:xlink="http://www.w3.org/1999/xlink" x="0px" y="0px"
	 viewBox="0 0 755.234 516.83" style="enable-background:new 0 0 755.234 516.83;" xml:space="preserve" fill="#d1d5db" > 
<g>
	<g>
		<path d="M62.762,29.434l-23.86-23.86l-23.84,23.84L4.648,19l15.24-15.24l38.057,0.02l15.24,15.24L62.762,29.434z M38.902,4.866
			l23.86,23.86l9.716-9.707L57.739,4.28L20.096,4.26L5.355,19l9.707,9.707L38.902,4.866z"/>
	</g>
	<g>
		<path d="M130.602,29.434l-23.87-23.86l-23.84,23.84L72.478,19l15.24-15.24l38.057,0.02l15.24,15.24L130.602,29.434z
			 M106.732,4.866l23.87,23.86l9.707-9.707l-14.74-14.74L87.926,4.26L73.186,19l9.707,9.707L106.732,4.866z"/>
	</g>
	<g>
		<path d="M198.432,29.434l-23.86-23.86l-23.84,23.84L140.309,19l15.24-15.24l38.057,0.02l15.24,15.24L198.432,29.434z
			 M174.572,4.866l23.86,23.86l9.707-9.707l-14.74-14.74l-37.643-0.02L141.016,19l9.716,9.707L174.572,4.866z"/>
	</g>
	<g>
		<path d="M266.312,29.434l-23.86-23.86l-23.85,23.84L208.188,19l15.24-15.24l38.057,0.02l15.24,15.24L266.312,29.434z
			 M242.452,4.866l23.86,23.86l9.707-9.707l-14.74-14.74l-37.643-0.02L208.895,19l9.707,9.707L242.452,4.866z"/>
	</g>
</g>
<g>
	<g>
		<path d="M62.762,54.513l-23.86-23.86l-23.84,23.84L4.648,44.08l15.24-15.25l38.057,0.02l15.24,15.25L62.762,54.513z
			 M38.902,29.946l23.86,23.86l9.716-9.706l-14.74-14.75l-37.643-0.02L5.355,44.08l9.707,9.706L38.902,29.946z"/>
	</g>
	<g>
		<path d="M130.602,54.513l-23.87-23.86l-23.84,23.84L72.478,44.08l15.24-15.25l38.057,0.02l15.24,15.25L130.602,54.513z
			 M106.732,29.946l23.87,23.86l9.707-9.706l-14.74-14.75l-37.643-0.02l-14.74,14.75l9.707,9.706L106.732,29.946z"/>
	</g>
	<g>
		<path d="M198.432,54.513l-23.86-23.86l-23.84,23.84L140.309,44.08l15.24-15.25l38.057,0.02l15.24,15.25L198.432,54.513z
			 M174.572,29.946l23.86,23.86l9.707-9.706l-14.74-14.75l-37.643-0.02l-14.74,14.75l9.716,9.706L174.572,29.946z"/>
	</g>
	<g>
		<path d="M266.312,54.513l-23.86-23.86l-23.85,23.84L208.188,44.08l15.24-15.25l38.057,0.02l15.24,15.25L266.312,54.513z
			 M242.452,29.946l23.86,23.86l9.707-9.706l-14.74-14.75l-37.643-0.02l-14.74,14.75l9.707,9.706L242.452,29.946z"/>
	</g>
</g>
<g>
	<g>
		<path d="M62.762,78.604l-23.86-23.86l-23.84,23.84L4.648,68.16l15.24-15.24l38.057,0.02l15.24,15.24L62.762,78.604z
			 M38.902,54.036l23.86,23.86l9.716-9.717l-14.74-14.74l-37.643-0.02L5.355,68.16l9.707,9.717L38.902,54.036z"/>
	</g>
	<g>
		<path d="M130.602,78.604l-23.87-23.86l-23.84,23.84L72.478,68.16l15.24-15.24l38.057,0.02l15.24,15.24L130.602,78.604z
			 M106.732,54.036l23.87,23.86l9.707-9.717l-14.74-14.74l-37.643-0.02l-14.74,14.74l9.707,9.717L106.732,54.036z"/>
	</g>
	<g>
		<path d="M198.432,78.604l-23.86-23.86l-23.84,23.84L140.309,68.16l15.24-15.24l38.057,0.02l15.24,15.24L198.432,78.604z
			 M174.572,54.036l23.86,23.86l9.707-9.717l-14.74-14.74l-37.643-0.02l-14.74,14.74l9.716,9.717L174.572,54.036z"/>
	</g>
	<g>
		<path d="M266.312,78.604l-23.86-23.86l-23.85,23.84L208.188,68.16l15.24-15.24l38.057,0.02l15.24,15.24L266.312,78.604z
			 M242.452,54.036l23.86,23.86l9.707-9.717l-14.74-14.74l-37.643-0.02l-14.74,14.74l9.707,9.717L242.452,54.036z"/>
	</g>
</g>
<g>
	<g>
		<path d="M62.762,102.693l-23.86-23.86l-23.84,23.84L4.648,92.25l15.24-15.24l38.057,0.02l15.24,15.24L62.762,102.693z
			 M38.902,78.127l23.86,23.86l9.716-9.716l-14.74-14.74l-37.643-0.02L5.355,92.25l9.707,9.716L38.902,78.127z"/>
	</g>
	<g>
		<path d="M130.602,102.693l-23.87-23.86l-23.84,23.84L72.478,92.25l15.24-15.24l38.057,0.02l15.24,15.24L130.602,102.693z
			 M106.732,78.127l23.87,23.86l9.707-9.716l-14.74-14.74l-37.643-0.02l-14.74,14.74l9.707,9.716L106.732,78.127z"/>
	</g>
	<g>
		<path d="M198.432,102.693l-23.86-23.86l-23.84,23.84L140.309,92.25l15.24-15.24l38.057,0.02l15.24,15.24L198.432,102.693z
			 M174.572,78.127l23.86,23.86l9.707-9.716l-14.74-14.74l-37.643-0.02l-14.74,14.74l9.716,9.716L174.572,78.127z"/>
	</g>
	<g>
		<path d="M266.312,102.693l-23.86-23.86l-23.85,23.84L208.188,92.25l15.24-15.24l38.057,0.02l15.24,15.24L266.312,102.693z
			 M242.452,78.127l23.86,23.86l9.707-9.716l-14.74-14.74l-37.643-0.02l-14.74,14.74l9.707,9.716L242.452,78.127z"/>
	</g>
</g>
<g>
	<g>
		<path d="M62.762,126.783l-23.86-23.87l-23.84,23.85L4.648,116.34l15.24-15.24l38.057,0.02l15.24,15.24L62.762,126.783z
			 M38.902,102.207l23.86,23.87l9.716-9.716l-14.74-14.74l-37.643-0.02l-14.74,14.74l9.707,9.716L38.902,102.207z"/>
	</g>
	<g>
		<path d="M130.602,126.783l-23.87-23.87l-23.84,23.85L72.478,116.34l15.24-15.24l38.057,0.02l15.24,15.24L130.602,126.783z
			 M106.732,102.207l23.87,23.87l9.707-9.716l-14.74-14.74l-37.643-0.02l-14.74,14.74l9.707,9.716L106.732,102.207z"/>
	</g>
	<g>
		<path d="M198.432,126.783l-23.86-23.87l-23.84,23.85l-10.423-10.423l15.24-15.24l38.057,0.02l15.24,15.24L198.432,126.783z
			 M174.572,102.207l23.86,23.87l9.707-9.716l-14.74-14.74l-37.643-0.02l-14.74,14.74l9.716,9.716L174.572,102.207z"/>
	</g>
	<g>
		<path d="M266.312,126.783l-23.86-23.87l-23.85,23.85l-10.414-10.423l15.24-15.24l38.057,0.02l15.24,15.24L266.312,126.783z
			 M242.452,102.207l23.86,23.87l9.707-9.716l-14.74-14.74l-37.643-0.02l-14.74,14.74l9.707,9.716L242.452,102.207z"/>
	</g>
</g>
<g>
	<g>
		<path d="M62.762,150.863l-23.86-23.86l-23.84,23.84L4.648,140.43l15.24-15.24l38.057,0.02l15.24,15.24L62.762,150.863z
			 M38.902,126.297l23.86,23.86l9.716-9.707l-14.74-14.74l-37.643-0.02l-14.74,14.74l9.707,9.707L38.902,126.297z"/>
	</g>
	<g>
		<path d="M130.602,150.863l-23.87-23.86l-23.84,23.84L72.478,140.43l15.24-15.24l38.057,0.02l15.24,15.24L130.602,150.863z
			 M106.732,126.297l23.87,23.86l9.707-9.707l-14.74-14.74l-37.643-0.02l-14.74,14.74l9.707,9.707L106.732,126.297z"/>
	</g>
	<g>
		<path d="M198.432,150.863l-23.86-23.86l-23.84,23.84l-10.423-10.414l15.24-15.24l38.057,0.02l15.24,15.24L198.432,150.863z
			 M174.572,126.297l23.86,23.86l9.707-9.707l-14.74-14.74l-37.643-0.02l-14.74,14.74l9.716,9.707L174.572,126.297z"/>
	</g>
	<g>
		<path d="M266.312,150.863l-23.86-23.86l-23.85,23.84l-10.414-10.414l15.24-15.24l38.057,0.02l15.24,15.24L266.312,150.863z
			 M242.452,126.297l23.86,23.86l9.707-9.707l-14.74-14.74l-37.643-0.02l-14.74,14.74l9.707,9.707L242.452,126.297z"/>
	</g>
</g>
<g>
	<g>
		<path d="M62.762,174.954l-23.86-23.86l-23.84,23.84L4.648,164.52l15.24-15.25l38.057,0.02l15.24,15.25L62.762,174.954z
			 M38.902,150.386l23.86,23.86l9.716-9.707l-14.74-14.75l-37.643-0.02l-14.74,14.75l9.707,9.707L38.902,150.386z"/>
	</g>
	<g>
		<path d="M130.602,174.954l-23.87-23.86l-23.84,23.84L72.478,164.52l15.24-15.25l38.057,0.02l15.24,15.25L130.602,174.954z
			 M106.732,150.386l23.87,23.86l9.707-9.707l-14.74-14.75l-37.643-0.02l-14.74,14.75l9.707,9.707L106.732,150.386z"/>
	</g>
	<g>
		<path d="M198.432,174.954l-23.86-23.86l-23.84,23.84l-10.423-10.414l15.24-15.25l38.057,0.02l15.24,15.25L198.432,174.954z
			 M174.572,150.386l23.86,23.86l9.707-9.707l-14.74-14.75l-37.643-0.02l-14.74,14.75l9.716,9.707L174.572,150.386z"/>
	</g>
	<g>
		<path d="M266.312,174.954l-23.86-23.86l-23.85,23.84l-10.414-10.414l15.24-15.25l38.057,0.02l15.24,15.25L266.312,174.954z
			 M242.452,150.386l23.86,23.86l9.707-9.707l-14.74-14.75l-37.643-0.02l-14.74,14.75l9.707,9.707L242.452,150.386z"/>
	</g>
</g>
<g>
	<g>
		<path d="M62.762,199.044l-23.86-23.86l-23.84,23.84L4.648,188.6l15.24-15.24l38.057,0.02l15.24,15.24L62.762,199.044z
			 M38.902,174.477l23.86,23.86l9.716-9.716l-14.74-14.74l-37.643-0.02L5.355,188.6l9.707,9.716L38.902,174.477z"/>
	</g>
	<g>
		<path d="M130.602,199.044l-23.87-23.86l-23.84,23.84L72.478,188.6l15.24-15.24l38.057,0.02l15.24,15.24L130.602,199.044z
			 M106.732,174.477l23.87,23.86l9.707-9.716l-14.74-14.74l-37.643-0.02l-14.74,14.74l9.707,9.716L106.732,174.477z"/>
	</g>
	<g>
		<path d="M198.432,199.044l-23.86-23.86l-23.84,23.84L140.309,188.6l15.24-15.24l38.057,0.02l15.24,15.24L198.432,199.044z
			 M174.572,174.477l23.86,23.86l9.707-9.716l-14.74-14.74l-37.643-0.02l-14.74,14.74l9.716,9.716L174.572,174.477z"/>
	</g>
	<g>
		<path d="M266.312,199.044l-23.86-23.86l-23.85,23.84L208.188,188.6l15.24-15.24l38.057,0.02l15.24,15.24L266.312,199.044z
			 M242.452,174.477l23.86,23.86l9.707-9.716l-14.74-14.74l-37.643-0.02l-14.74,14.74l9.707,9.716L242.452,174.477z"/>
	</g>
</g>
<g>
	<g>
		<path d="M62.762,223.133l-23.86-23.86l-23.84,23.84L4.648,212.69l15.24-15.24l38.057,0.02l15.24,15.24L62.762,223.133z
			 M38.902,198.567l23.86,23.86l9.716-9.716l-14.74-14.74l-37.643-0.02l-14.74,14.74l9.707,9.716L38.902,198.567z"/>
	</g>
	<g>
		<path d="M130.602,223.133l-23.87-23.86l-23.84,23.84L72.478,212.69l15.24-15.24l38.057,0.02l15.24,15.24L130.602,223.133z
			 M106.732,198.567l23.87,23.86l9.707-9.716l-14.74-14.74l-37.643-0.02l-14.74,14.74l9.707,9.716L106.732,198.567z"/>
	</g>
	<g>
		<path d="M198.432,223.133l-23.86-23.86l-23.84,23.84l-10.423-10.423l15.24-15.24l38.057,0.02l15.24,15.24L198.432,223.133z
			 M174.572,198.567l23.86,23.86l9.707-9.716l-14.74-14.74l-37.643-0.02l-14.74,14.74l9.716,9.716L174.572,198.567z"/>
	</g>
	<g>
		<path d="M266.312,223.133l-23.86-23.86l-23.85,23.84l-10.414-10.423l15.24-15.24l38.057,0.02l15.24,15.24L266.312,223.133z
			 M242.452,198.567l23.86,23.86l9.707-9.716l-14.74-14.74l-37.643-0.02l-14.74,14.74l9.707,9.716L242.452,198.567z"/>
	</g>
</g>
<g>
	<g>
		<path d="M62.762,247.214l-23.86-23.86l-23.84,23.85L4.648,236.78l15.24-15.24l38.057,0.02l15.24,15.24L62.762,247.214z
			 M38.902,222.647l23.86,23.86l9.716-9.707l-14.74-14.74l-37.643-0.02l-14.74,14.74l9.707,9.717L38.902,222.647z"/>
	</g>
	<g>
		<path d="M130.602,247.214l-23.87-23.86l-23.84,23.85L72.478,236.78l15.24-15.24l38.057,0.02l15.24,15.24L130.602,247.214z
			 M106.732,222.647l23.87,23.86l9.707-9.707l-14.74-14.74l-37.643-0.02l-14.74,14.74l9.707,9.717L106.732,222.647z"/>
	</g>
	<g>
		<path d="M198.432,247.214l-23.86-23.86l-23.84,23.85l-10.423-10.424l15.24-15.24l38.057,0.02l15.24,15.24L198.432,247.214z
			 M174.572,222.647l23.86,23.86l9.707-9.707l-14.74-14.74l-37.643-0.02l-14.74,14.74l9.716,9.717L174.572,222.647z"/>
	</g>
	<g>
		<path d="M266.312,247.214l-23.86-23.86l-23.85,23.85l-10.414-10.424l15.24-15.24l38.057,0.02l15.24,15.24L266.312,247.214z
			 M242.452,222.647l23.86,23.86l9.707-9.707l-14.74-14.74l-37.643-0.02l-14.74,14.74l9.707,9.717L242.452,222.647z"/>
	</g>
</g>
<g>
	<g>
		<path d="M62.762,271.304l-23.86-23.86l-23.84,23.84L4.648,260.87l15.24-15.24l38.057,0.01l15.24,15.25L62.762,271.304z
			 M38.902,246.736l23.86,23.86l9.716-9.707l-14.74-14.75l-37.643-0.01l-14.74,14.74l9.707,9.706L38.902,246.736z"/>
	</g>
	<g>
		<path d="M130.602,271.304l-23.87-23.86l-23.84,23.84L72.478,260.87l15.24-15.24l38.057,0.01l15.24,15.25L130.602,271.304z
			 M106.732,246.736l23.87,23.86l9.707-9.707l-14.74-14.75l-37.643-0.01l-14.74,14.74l9.707,9.706L106.732,246.736z"/>
	</g>
	<g>
		<path d="M198.432,271.304l-23.86-23.86l-23.84,23.84l-10.423-10.413l15.24-15.24l38.057,0.01l15.24,15.25L198.432,271.304z
			 M174.572,246.736l23.86,23.86l9.707-9.707l-14.74-14.75l-37.643-0.01l-14.74,14.74l9.716,9.706L174.572,246.736z"/>
	</g>
	<g>
		<path d="M266.312,271.304l-23.86-23.86l-23.85,23.84l-10.414-10.413l15.24-15.24l38.057,0.01l15.24,15.25L266.312,271.304z
			 M242.452,246.736l23.86,23.86l9.707-9.707l-14.74-14.75l-37.643-0.01l-14.74,14.74l9.707,9.706L242.452,246.736z"/>
	</g>
</g>
<g>
	<g>
		<path d="M62.762,295.394l-23.86-23.86l-23.84,23.84L4.648,284.96l15.24-15.25l38.057,0.02l15.24,15.24L62.762,295.394z
			 M38.902,270.826l23.86,23.86l9.716-9.717l-14.74-14.74l-37.643-0.02l-14.74,14.75l9.707,9.706L38.902,270.826z"/>
	</g>
	<g>
		<path d="M130.602,295.394l-23.87-23.86l-23.84,23.84L72.478,284.96l15.24-15.25l38.057,0.02l15.24,15.24L130.602,295.394z
			 M106.732,270.826l23.87,23.86l9.707-9.717l-14.74-14.74l-37.643-0.02l-14.74,14.75l9.707,9.706L106.732,270.826z"/>
	</g>
	<g>
		<path d="M198.432,295.394l-23.86-23.86l-23.84,23.84l-10.423-10.413l15.24-15.25l38.057,0.02l15.24,15.24L198.432,295.394z
			 M174.572,270.826l23.86,23.86l9.707-9.717l-14.74-14.74l-37.643-0.02l-14.74,14.75l9.716,9.706L174.572,270.826z"/>
	</g>
	<g>
		<path d="M266.312,295.394l-23.86-23.86l-23.85,23.84l-10.414-10.413l15.24-15.25l38.057,0.02l15.24,15.24L266.312,295.394z
			 M242.452,270.826l23.86,23.86l9.707-9.717l-14.74-14.74l-37.643-0.02l-14.74,14.75l9.707,9.706L242.452,270.826z"/>
	</g>
</g>
<g>
	<g>
		<path d="M62.939,319.307h-0.354l-23.683-23.684l-23.664,23.664h-0.354l-10.06-10.07v-0.354l14.99-14.99l0.177-0.073l37.85,0.021
			l0.177,0.073l14.99,14.989v0.354L62.939,319.307z M38.726,295.093h0.354l23.683,23.684l9.716-9.717l-14.74-14.739L20.096,294.3
			l-14.74,14.74l9.707,9.717L38.726,295.093z"/>
	</g>
	<g>
		<path d="M130.425,319.307l-23.693-23.684l-23.663,23.664h-0.354l-10.06-10.07v-0.354l14.99-14.99l0.177-0.073l37.85,0.021
			l0.177,0.073l14.99,14.989v0.354l-10.06,10.07H130.425z M106.909,295.093l23.693,23.684l9.707-9.717l-14.74-14.739L87.926,294.3
			l-14.74,14.74l9.707,9.717l23.663-23.664H106.909z"/>
	</g>
	<g>
		<path d="M198.255,319.307l-23.683-23.684l-23.664,23.664h-0.354l-10.07-10.07v-0.354l14.99-14.99l0.177-0.073l37.85,0.021
			l0.177,0.073l14.99,14.989v0.354l-10.06,10.07H198.255z M174.395,295.093h0.354l23.683,23.684l9.707-9.717l-14.74-14.739
			l-37.643-0.021l-14.74,14.74l9.716,9.717L174.395,295.093z"/>
	</g>
	<g>
		<path d="M266.135,319.307l-23.683-23.684l-23.673,23.664h-0.354l-10.06-10.07v-0.354l14.99-14.99l0.177-0.073l37.85,0.021
			l0.177,0.073l14.99,14.989v0.354l-10.06,10.07H266.135z M242.275,295.093h0.354l23.683,23.684l9.707-9.717l-14.74-14.739
			l-37.643-0.021l-14.74,14.74l9.707,9.717L242.275,295.093z"/>
	</g>
</g>
<g>
	<g>
		<path d="M62.762,343.573l-23.86-23.859l-23.84,23.84L4.648,333.13l15.24-15.24l38.057,0.021l15.24,15.239L62.762,343.573z
			 M38.902,319.007l23.86,23.859l9.716-9.717l-14.74-14.739l-37.643-0.021l-14.74,14.74l9.707,9.717L38.902,319.007z"/>
	</g>
	<g>
		<path d="M130.602,343.573l-23.87-23.859l-23.84,23.84L72.478,333.13l15.24-15.24l38.057,0.021l15.24,15.239L130.602,343.573z
			 M106.732,319.007l23.87,23.859l9.707-9.717l-14.74-14.739l-37.643-0.021l-14.74,14.74l9.707,9.717L106.732,319.007z"/>
	</g>
	<g>
		<path d="M198.432,343.573l-23.86-23.859l-23.84,23.84l-10.423-10.424l15.24-15.24l38.057,0.021l15.24,15.239L198.432,343.573z
			 M174.572,319.007l23.86,23.859l9.707-9.717l-14.74-14.739l-37.643-0.021l-14.74,14.74l9.716,9.717L174.572,319.007z"/>
	</g>
	<g>
		<path d="M266.312,343.573l-23.86-23.859l-23.85,23.84l-10.414-10.424l15.24-15.24l38.057,0.021l15.24,15.239L266.312,343.573z
			 M242.452,319.007l23.86,23.859l9.707-9.717l-14.74-14.739l-37.643-0.021l-14.74,14.74l9.707,9.717L242.452,319.007z"/>
	</g>
</g>
<g>
	<path d="M62.762,368.644l-23.86-23.86l-23.84,23.84L4.648,358.21l15.24-15.24l38.057,0.021l15.24,15.239L62.762,368.644z
		 M38.902,344.076l23.86,23.86l9.716-9.707l-14.74-14.739l-37.643-0.021l-14.74,14.74l9.707,9.706L38.902,344.076z"/>
</g>
<g>
	<path d="M130.602,368.644l-23.87-23.86l-23.84,23.84L72.478,358.21l15.24-15.24l38.057,0.021l15.24,15.239L130.602,368.644z
		 M106.732,344.076l23.87,23.86l9.707-9.707l-14.74-14.739l-37.643-0.021l-14.74,14.74l9.707,9.706L106.732,344.076z"/>
</g>
<g>
	<path d="M198.432,368.644l-23.86-23.86l-23.84,23.84l-10.423-10.413l15.24-15.24l38.057,0.021l15.24,15.239L198.432,368.644z
		 M174.572,344.076l23.86,23.86l9.707-9.707l-14.74-14.739l-37.643-0.021l-14.74,14.74l9.716,9.706L174.572,344.076z"/>
</g>
<g>
	<path d="M266.312,368.644l-23.86-23.86l-23.85,23.84l-10.414-10.413l15.24-15.24l38.057,0.021l15.24,15.239L266.312,368.644z
		 M242.452,344.076l23.86,23.86l9.707-9.707l-14.74-14.739l-37.643-0.021l-14.74,14.74l9.707,9.706L242.452,344.076z"/>
</g>
<g>
	<path d="M62.762,392.734l-23.86-23.86l-23.84,23.841L4.648,382.3l15.24-15.25l38.057,0.021l15.24,15.25L62.762,392.734z
		 M38.902,368.166l23.86,23.86l9.716-9.706l-14.74-14.75l-37.643-0.021L5.355,382.3l9.707,9.707L38.902,368.166z"/>
</g>
<g>
	<path d="M130.602,392.734l-23.87-23.86l-23.84,23.841L72.478,382.3l15.24-15.25l38.057,0.021l15.24,15.25L130.602,392.734z
		 M106.732,368.166l23.87,23.86l9.707-9.706l-14.74-14.75l-37.643-0.021l-14.74,14.75l9.707,9.707L106.732,368.166z"/>
</g>
<g>
	<path d="M198.432,392.734l-23.86-23.86l-23.84,23.841L140.309,382.3l15.24-15.25l38.057,0.021l15.24,15.25L198.432,392.734z
		 M174.572,368.166l23.86,23.86l9.707-9.706l-14.74-14.75l-37.643-0.021l-14.74,14.75l9.716,9.707L174.572,368.166z"/>
</g>
<g>
	<path d="M266.312,392.734l-23.86-23.86l-23.85,23.841L208.188,382.3l15.24-15.25l38.057,0.021l15.24,15.25L266.312,392.734z
		 M242.452,368.166l23.86,23.86l9.707-9.706l-14.74-14.75l-37.643-0.021l-14.74,14.75l9.707,9.707L242.452,368.166z"/>
</g>
<g>
	<path d="M62.762,416.823l-23.86-23.859l-23.84,23.84L4.648,406.38l15.24-15.24l38.057,0.021l15.24,15.239L62.762,416.823z
		 M38.902,392.257l23.86,23.859l9.716-9.717l-14.74-14.739l-37.643-0.021l-14.74,14.74l9.707,9.717L38.902,392.257z"/>
</g>
<g>
	<path d="M130.602,416.823l-23.87-23.859l-23.84,23.84L72.478,406.38l15.24-15.24l38.057,0.021l15.24,15.239L130.602,416.823z
		 M106.732,392.257l23.87,23.859l9.707-9.717l-14.74-14.739l-37.643-0.021l-14.74,14.74l9.707,9.717L106.732,392.257z"/>
</g>
<g>
	<path d="M198.432,416.823l-23.86-23.859l-23.84,23.84l-10.423-10.424l15.24-15.24l38.057,0.021l15.24,15.239L198.432,416.823z
		 M174.572,392.257l23.86,23.859l9.707-9.717l-14.74-14.739l-37.643-0.021l-14.74,14.74l9.716,9.717L174.572,392.257z"/>
</g>
<g>
	<path d="M266.312,416.823l-23.86-23.859l-23.85,23.84l-10.414-10.424l15.24-15.24l38.057,0.021l15.24,15.239L266.312,416.823z
		 M242.452,392.257l23.86,23.859l9.707-9.717l-14.74-14.739l-37.643-0.021l-14.74,14.74l9.707,9.717L242.452,392.257z"/>
</g>
<g>
	<path d="M62.762,440.913l-23.86-23.859l-23.84,23.84L4.648,430.47l15.24-15.24l38.057,0.021l15.24,15.24L62.762,440.913z
		 M38.902,416.347l23.86,23.859l9.716-9.716l-14.74-14.74l-37.643-0.021l-14.74,14.74l9.707,9.717L38.902,416.347z"/>
</g>
<g>
	<path d="M130.602,440.913l-23.87-23.859l-23.84,23.84L72.478,430.47l15.24-15.24l38.057,0.021l15.24,15.24L130.602,440.913z
		 M106.732,416.347l23.87,23.859l9.707-9.716l-14.74-14.74l-37.643-0.021l-14.74,14.74l9.707,9.717L106.732,416.347z"/>
</g>
<g>
	<path d="M198.432,440.913l-23.86-23.859l-23.84,23.84l-10.423-10.424l15.24-15.24l38.057,0.021l15.24,15.24L198.432,440.913z
		 M174.572,416.347l23.86,23.859l9.707-9.716l-14.74-14.74l-37.643-0.021l-14.74,14.74l9.716,9.717L174.572,416.347z"/>
</g>
<g>
	<path d="M266.312,440.913l-23.86-23.859l-23.85,23.84l-10.414-10.424l15.24-15.24l38.057,0.021l15.24,15.24L266.312,440.913z
		 M242.452,416.347l23.86,23.859l9.707-9.716l-14.74-14.74l-37.643-0.021l-14.74,14.74l9.707,9.717L242.452,416.347z"/>
</g>
<g>
	<path d="M62.762,465.003l-23.86-23.869l-23.84,23.85L4.648,454.56l15.24-15.239l38.057,0.02l15.24,15.24L62.762,465.003z
		 M38.902,440.427l23.86,23.869l9.716-9.716l-14.74-14.74l-37.643-0.02L5.355,454.56l9.707,9.717L38.902,440.427z"/>
</g>
<g>
	<path d="M130.602,465.003l-23.87-23.869l-23.84,23.85L72.478,454.56l15.24-15.239l38.057,0.02l15.24,15.24L130.602,465.003z
		 M106.732,440.427l23.87,23.869l9.707-9.716l-14.74-14.74l-37.643-0.02l-14.74,14.739l9.707,9.717L106.732,440.427z"/>
</g>
<g>
	<path d="M198.432,465.003l-23.86-23.869l-23.84,23.85l-10.423-10.424l15.24-15.239l38.057,0.02l15.24,15.24L198.432,465.003z
		 M174.572,440.427l23.86,23.869l9.707-9.716l-14.74-14.74l-37.643-0.02l-14.74,14.739l9.716,9.717L174.572,440.427z"/>
</g>
<g>
	<path d="M266.312,465.003l-23.86-23.869l-23.85,23.85l-10.414-10.424l15.24-15.239l38.057,0.02l15.24,15.24L266.312,465.003z
		 M242.452,440.427l23.86,23.869l9.707-9.716l-14.74-14.74l-37.643-0.02l-14.74,14.739l9.707,9.717L242.452,440.427z"/>
</g>
<g>
	<path d="M62.762,489.083l-23.86-23.859l-23.84,23.84L4.648,478.65l15.24-15.239l38.057,0.02l15.24,15.24L62.762,489.083z
		 M38.902,464.517l23.86,23.859l9.716-9.706l-14.74-14.74l-37.643-0.02L5.355,478.65l9.707,9.707L38.902,464.517z"/>
</g>
<g>
	<path d="M130.602,489.083l-23.87-23.859l-23.84,23.84L72.478,478.65l15.24-15.239l38.057,0.02l15.24,15.24L130.602,489.083z
		 M106.732,464.517l23.87,23.859l9.707-9.706l-14.74-14.74l-37.643-0.02l-14.74,14.739l9.707,9.707L106.732,464.517z"/>
</g>
<g>
	<path d="M198.432,489.083l-23.86-23.859l-23.84,23.84l-10.423-10.414l15.24-15.239l38.057,0.02l15.24,15.24L198.432,489.083z
		 M174.572,464.517l23.86,23.859l9.707-9.706l-14.74-14.74l-37.643-0.02l-14.74,14.739l9.716,9.707L174.572,464.517z"/>
</g>
<g>
	<path d="M266.312,489.083l-23.86-23.859l-23.85,23.84l-10.414-10.414l15.24-15.239l38.057,0.02l15.24,15.24L266.312,489.083z
		 M242.452,464.517l23.86,23.859l9.707-9.706l-14.74-14.74l-37.643-0.02l-14.74,14.739l9.707,9.707L242.452,464.517z"/>
</g>
<g>
	<path d="M62.762,513.174l-23.86-23.86l-23.84,23.84L4.648,502.74l15.24-15.25l38.057,0.02l15.24,15.25L62.762,513.174z
		 M38.902,488.607l23.86,23.86l9.716-9.707l-14.74-14.75l-37.643-0.02l-14.74,14.75l9.707,9.706L38.902,488.607z"/>
</g>
<g>
	<path d="M130.602,513.174l-23.87-23.86l-23.84,23.84L72.478,502.74l15.24-15.25l38.057,0.02l15.24,15.25L130.602,513.174z
		 M106.732,488.607l23.87,23.86l9.707-9.707l-14.74-14.75l-37.643-0.02l-14.74,14.75l9.707,9.706L106.732,488.607z"/>
</g>
<g>
	<path d="M198.432,513.174l-23.86-23.86l-23.84,23.84l-10.423-10.413l15.24-15.25l38.057,0.02l15.24,15.25L198.432,513.174z
		 M174.572,488.607l23.86,23.86l9.707-9.707l-14.74-14.75l-37.643-0.02l-14.74,14.75l9.716,9.706L174.572,488.607z"/>
</g>
<g>
	<path d="M266.312,513.174l-23.86-23.86l-23.85,23.84l-10.414-10.413l15.24-15.25l38.057,0.02l15.24,15.25L266.312,513.174z
		 M242.452,488.607l23.86,23.86l9.707-9.707l-14.74-14.75l-37.643-0.02l-14.74,14.75l9.707,9.706L242.452,488.607z"/>
</g>
<g>
	<g>
		<path d="M334.142,29.434l-23.86-23.86l-23.84,23.84L276.019,19l15.24-15.24l38.057,0.02l15.24,15.24L334.142,29.434z
			 M310.282,4.866l23.86,23.86l9.707-9.707l-14.74-14.74l-37.643-0.02L276.726,19l9.717,9.707L310.282,4.866z"/>
	</g>
	<g>
		<path d="M401.972,29.434l-23.859-23.86l-23.84,23.84L343.849,19l15.25-15.24l38.057,0.02l15.24,15.24L401.972,29.434z
			 M378.112,4.866l23.859,23.86l9.717-9.707l-14.74-14.74l-37.643-0.02L344.556,19l9.716,9.707L378.112,4.866z"/>
	</g>
	<g>
		<path d="M469.802,29.434l-23.859-23.86l-23.84,23.84L411.688,19l15.24-15.24l38.057,0.02l15.24,15.24L469.802,29.434z
			 M445.942,4.866l23.859,23.86l9.717-9.707l-14.74-14.74l-37.643-0.02L412.395,19l9.707,9.707L445.942,4.866z"/>
	</g>
	<g>
		<path d="M537.643,29.434l-23.86-23.86l-23.84,23.84L479.519,19l15.24-15.24l38.057,0.02l15.24,15.24L537.643,29.434z
			 M513.782,4.866l23.86,23.86l9.706-9.707l-14.74-14.74l-37.643-0.02L480.226,19l9.717,9.707L513.782,4.866z"/>
	</g>
	<g>
		<path d="M605.522,29.434l-23.86-23.86l-23.85,23.84L547.398,19l15.24-15.24l38.057,0.02l15.24,15.24L605.522,29.434z
			 M581.662,4.866l23.86,23.86l9.706-9.707l-14.74-14.74l-37.643-0.02L548.105,19l9.707,9.707L581.662,4.866z"/>
	</g>
</g>
<g>
	<g>
		<path d="M334.142,54.513l-23.86-23.86l-23.84,23.84L276.019,44.08l15.24-15.25l38.057,0.02l15.24,15.25L334.142,54.513z
			 M310.282,29.946l23.86,23.86l9.707-9.706l-14.74-14.75l-37.643-0.02l-14.74,14.75l9.717,9.706L310.282,29.946z"/>
	</g>
	<g>
		<path d="M401.972,54.513l-23.859-23.86l-23.84,23.84L343.849,44.08l15.25-15.25l38.057,0.02l15.24,15.25L401.972,54.513z
			 M378.112,29.946l23.859,23.86l9.717-9.706l-14.74-14.75l-37.643-0.02l-14.75,14.75l9.716,9.706L378.112,29.946z"/>
	</g>
	<g>
		<path d="M469.802,54.513l-23.859-23.86l-23.84,23.84L411.688,44.08l15.24-15.25l38.057,0.02l15.24,15.25L469.802,54.513z
			 M445.942,29.946l23.859,23.86l9.717-9.706l-14.74-14.75l-37.643-0.02l-14.74,14.75l9.707,9.706L445.942,29.946z"/>
	</g>
	<g>
		<path d="M537.643,54.513l-23.86-23.86l-23.84,23.84L479.519,44.08l15.24-15.25l38.057,0.02l15.24,15.25L537.643,54.513z
			 M513.782,29.946l23.86,23.86l9.706-9.706l-14.74-14.75l-37.643-0.02l-14.74,14.75l9.717,9.706L513.782,29.946z"/>
	</g>
	<g>
		<path d="M605.522,54.513l-23.86-23.86l-23.85,23.84L547.398,44.08l15.24-15.25l38.057,0.02l15.24,15.25L605.522,54.513z
			 M581.662,29.946l23.86,23.86l9.706-9.706l-14.74-14.75l-37.643-0.02l-14.74,14.75l9.707,9.706L581.662,29.946z"/>
	</g>
</g>
<g>
	<g>
		<path d="M334.142,78.604l-23.86-23.86l-23.84,23.84L276.019,68.16l15.24-15.24l38.057,0.02l15.24,15.24L334.142,78.604z
			 M310.282,54.036l23.86,23.86l9.707-9.717l-14.74-14.74l-37.643-0.02l-14.74,14.74l9.717,9.717L310.282,54.036z"/>
	</g>
	<g>
		<path d="M401.972,78.604l-23.859-23.86l-23.84,23.84L343.849,68.16l15.25-15.24l38.057,0.02l15.24,15.24L401.972,78.604z
			 M378.112,54.036l23.859,23.86l9.717-9.717l-14.74-14.74l-37.643-0.02l-14.75,14.74l9.716,9.717L378.112,54.036z"/>
	</g>
	<g>
		<path d="M469.802,78.604l-23.859-23.86l-23.84,23.84L411.688,68.16l15.24-15.24l38.057,0.02l15.24,15.24L469.802,78.604z
			 M445.942,54.036l23.859,23.86l9.717-9.717l-14.74-14.74l-37.643-0.02l-14.74,14.74l9.707,9.717L445.942,54.036z"/>
	</g>
	<g>
		<path d="M537.643,78.604l-23.86-23.86l-23.84,23.84L479.519,68.16l15.24-15.24l38.057,0.02l15.24,15.24L537.643,78.604z
			 M513.782,54.036l23.86,23.86l9.706-9.717l-14.74-14.74l-37.643-0.02l-14.74,14.74l9.717,9.717L513.782,54.036z"/>
	</g>
	<g>
		<path d="M605.522,78.604l-23.86-23.86l-23.85,23.84L547.398,68.16l15.24-15.24l38.057,0.02l15.24,15.24L605.522,78.604z
			 M581.662,54.036l23.86,23.86l9.706-9.717l-14.74-14.74l-37.643-0.02l-14.74,14.74l9.707,9.717L581.662,54.036z"/>
	</g>
</g>
<g>
	<path d="M334.142,102.693l-23.86-23.86l-23.84,23.84L276.019,92.25l15.24-15.24l38.057,0.02l15.24,15.24L334.142,102.693z
		 M310.282,78.127l23.86,23.86l9.707-9.716l-14.74-14.74l-37.643-0.02l-14.74,14.74l9.717,9.716L310.282,78.127z"/>
</g>
<g>
	<path d="M401.972,102.693l-23.859-23.86l-23.84,23.84L343.849,92.25l15.25-15.24l38.057,0.02l15.24,15.24L401.972,102.693z
		 M378.112,78.127l23.859,23.86l9.717-9.716l-14.74-14.74l-37.643-0.02l-14.75,14.74l9.716,9.716L378.112,78.127z"/>
</g>
<g>
	<path d="M469.802,102.693l-23.859-23.86l-23.84,23.84L411.688,92.25l15.24-15.24l38.057,0.02l15.24,15.24L469.802,102.693z
		 M445.942,78.127l23.859,23.86l9.717-9.716l-14.74-14.74l-37.643-0.02l-14.74,14.74l9.707,9.716L445.942,78.127z"/>
</g>
<g>
	<path d="M537.643,102.693l-23.86-23.86l-23.84,23.84L479.519,92.25l15.24-15.24l38.057,0.02l15.24,15.24L537.643,102.693z
		 M513.782,78.127l23.86,23.86l9.706-9.716l-14.74-14.74l-37.643-0.02l-14.74,14.74l9.717,9.716L513.782,78.127z"/>
</g>
<g>
	<path d="M605.522,102.693l-23.86-23.86l-23.85,23.84L547.398,92.25l15.24-15.24l38.057,0.02l15.24,15.24L605.522,102.693z
		 M581.662,78.127l23.86,23.86l9.706-9.716l-14.74-14.74l-37.643-0.02l-14.74,14.74l9.707,9.716L581.662,78.127z"/>
</g>
<g>
	<g>
		<path d="M334.142,126.783l-23.86-23.87l-23.84,23.85l-10.424-10.423l15.24-15.24l38.057,0.02l15.24,15.24L334.142,126.783z
			 M310.282,102.207l23.86,23.87l9.707-9.716l-14.74-14.74l-37.643-0.02l-14.74,14.74l9.717,9.716L310.282,102.207z"/>
	</g>
	<g>
		<path d="M401.972,126.783l-23.859-23.87l-23.84,23.85l-10.423-10.423l15.25-15.24l38.057,0.02l15.24,15.24L401.972,126.783z
			 M378.112,102.207l23.859,23.87l9.717-9.716l-14.74-14.74l-37.643-0.02l-14.75,14.74l9.716,9.716L378.112,102.207z"/>
	</g>
	<g>
		<path d="M469.802,126.783l-23.859-23.87l-23.84,23.85l-10.414-10.423l15.24-15.24l38.057,0.02l15.24,15.24L469.802,126.783z
			 M445.942,102.207l23.859,23.87l9.717-9.716l-14.74-14.74l-37.643-0.02l-14.74,14.74l9.707,9.716L445.942,102.207z"/>
	</g>
	<g>
		<path d="M537.643,126.783l-23.86-23.87l-23.84,23.85l-10.424-10.423l15.24-15.24l38.057,0.02l15.24,15.24L537.643,126.783z
			 M513.782,102.207l23.86,23.87l9.706-9.716l-14.74-14.74l-37.643-0.02l-14.74,14.74l9.717,9.716L513.782,102.207z"/>
	</g>
	<g>
		<path d="M605.522,126.783l-23.86-23.87l-23.85,23.85l-10.414-10.423l15.24-15.24l38.057,0.02l15.24,15.24L605.522,126.783z
			 M581.662,102.207l23.86,23.87l9.706-9.716l-14.74-14.74l-37.643-0.02l-14.74,14.74l9.707,9.716L581.662,102.207z"/>
	</g>
</g>
<g>
	<g>
		<path d="M334.142,150.863l-23.86-23.86l-23.84,23.84l-10.424-10.414l15.24-15.24l38.057,0.02l15.24,15.24L334.142,150.863z
			 M310.282,126.297l23.86,23.86l9.707-9.707l-14.74-14.74l-37.643-0.02l-14.74,14.74l9.717,9.707L310.282,126.297z"/>
	</g>
	<g>
		<path d="M401.972,150.863l-23.859-23.86l-23.84,23.84l-10.423-10.414l15.25-15.24l38.057,0.02l15.24,15.24L401.972,150.863z
			 M378.112,126.297l23.859,23.86l9.717-9.707l-14.74-14.74l-37.643-0.02l-14.75,14.74l9.716,9.707L378.112,126.297z"/>
	</g>
	<g>
		<path d="M469.802,150.863l-23.859-23.86l-23.84,23.84l-10.414-10.414l15.24-15.24l38.057,0.02l15.24,15.24L469.802,150.863z
			 M445.942,126.297l23.859,23.86l9.717-9.707l-14.74-14.74l-37.643-0.02l-14.74,14.74l9.707,9.707L445.942,126.297z"/>
	</g>
	<g>
		<path d="M537.643,150.863l-23.86-23.86l-23.84,23.84l-10.424-10.414l15.24-15.24l38.057,0.02l15.24,15.24L537.643,150.863z
			 M513.782,126.297l23.86,23.86l9.706-9.707l-14.74-14.74l-37.643-0.02l-14.74,14.74l9.717,9.707L513.782,126.297z"/>
	</g>
	<g>
		<path d="M605.522,150.863l-23.86-23.86l-23.85,23.84l-10.414-10.414l15.24-15.24l38.057,0.02l15.24,15.24L605.522,150.863z
			 M581.662,126.297l23.86,23.86l9.706-9.707l-14.74-14.74l-37.643-0.02l-14.74,14.74l9.707,9.707L581.662,126.297z"/>
	</g>
</g>
<g>
	<g>
		<path d="M334.142,174.954l-23.86-23.86l-23.84,23.84l-10.424-10.414l15.24-15.25l38.057,0.02l15.24,15.25L334.142,174.954z
			 M310.282,150.386l23.86,23.86l9.707-9.707l-14.74-14.75l-37.643-0.02l-14.74,14.75l9.717,9.707L310.282,150.386z"/>
	</g>
	<g>
		<path d="M401.972,174.954l-23.859-23.86l-23.84,23.84l-10.423-10.414l15.25-15.25l38.057,0.02l15.24,15.25L401.972,174.954z
			 M378.112,150.386l23.859,23.86l9.717-9.707l-14.74-14.75l-37.643-0.02l-14.75,14.75l9.716,9.707L378.112,150.386z"/>
	</g>
	<g>
		<path d="M469.802,174.954l-23.859-23.86l-23.84,23.84l-10.414-10.414l15.24-15.25l38.057,0.02l15.24,15.25L469.802,174.954z
			 M445.942,150.386l23.859,23.86l9.717-9.707l-14.74-14.75l-37.643-0.02l-14.74,14.75l9.707,9.707L445.942,150.386z"/>
	</g>
	<g>
		<path d="M537.643,174.954l-23.86-23.86l-23.84,23.84l-10.424-10.414l15.24-15.25l38.057,0.02l15.24,15.25L537.643,174.954z
			 M513.782,150.386l23.86,23.86l9.706-9.707l-14.74-14.75l-37.643-0.02l-14.74,14.75l9.717,9.707L513.782,150.386z"/>
	</g>
	<g>
		<path d="M605.522,174.954l-23.86-23.86l-23.85,23.84l-10.414-10.414l15.24-15.25l38.057,0.02l15.24,15.25L605.522,174.954z
			 M581.662,150.386l23.86,23.86l9.706-9.707l-14.74-14.75l-37.643-0.02l-14.74,14.75l9.707,9.707L581.662,150.386z"/>
	</g>
</g>
<g>
	<g>
		<path d="M334.142,199.044l-23.86-23.86l-23.84,23.84L276.019,188.6l15.24-15.24l38.057,0.02l15.24,15.24L334.142,199.044z
			 M310.282,174.477l23.86,23.86l9.707-9.716l-14.74-14.74l-37.643-0.02l-14.74,14.74l9.717,9.716L310.282,174.477z"/>
	</g>
	<g>
		<path d="M401.972,199.044l-23.859-23.86l-23.84,23.84L343.849,188.6l15.25-15.24l38.057,0.02l15.24,15.24L401.972,199.044z
			 M378.112,174.477l23.859,23.86l9.717-9.716l-14.74-14.74l-37.643-0.02l-14.75,14.74l9.716,9.716L378.112,174.477z"/>
	</g>
	<g>
		<path d="M469.802,199.044l-23.859-23.86l-23.84,23.84L411.688,188.6l15.24-15.24l38.057,0.02l15.24,15.24L469.802,199.044z
			 M445.942,174.477l23.859,23.86l9.717-9.716l-14.74-14.74l-37.643-0.02l-14.74,14.74l9.707,9.716L445.942,174.477z"/>
	</g>
	<g>
		<path d="M537.643,199.044l-23.86-23.86l-23.84,23.84L479.519,188.6l15.24-15.24l38.057,0.02l15.24,15.24L537.643,199.044z
			 M513.782,174.477l23.86,23.86l9.706-9.716l-14.74-14.74l-37.643-0.02l-14.74,14.74l9.717,9.716L513.782,174.477z"/>
	</g>
	<g>
		<path d="M605.522,199.044l-23.86-23.86l-23.85,23.84L547.398,188.6l15.24-15.24l38.057,0.02l15.24,15.24L605.522,199.044z
			 M581.662,174.477l23.86,23.86l9.706-9.716l-14.74-14.74l-37.643-0.02l-14.74,14.74l9.707,9.716L581.662,174.477z"/>
	</g>
</g>
<g>
	<g>
		<path d="M334.142,223.133l-23.86-23.86l-23.84,23.84l-10.424-10.423l15.24-15.24l38.057,0.02l15.24,15.24L334.142,223.133z
			 M310.282,198.567l23.86,23.86l9.707-9.716l-14.74-14.74l-37.643-0.02l-14.74,14.74l9.717,9.716L310.282,198.567z"/>
	</g>
	<g>
		<path d="M401.972,223.133l-23.859-23.86l-23.84,23.84l-10.423-10.423l15.25-15.24l38.057,0.02l15.24,15.24L401.972,223.133z
			 M378.112,198.567l23.859,23.86l9.717-9.716l-14.74-14.74l-37.643-0.02l-14.75,14.74l9.716,9.716L378.112,198.567z"/>
	</g>
	<g>
		<path d="M469.802,223.133l-23.859-23.86l-23.84,23.84l-10.414-10.423l15.24-15.24l38.057,0.02l15.24,15.24L469.802,223.133z
			 M445.942,198.567l23.859,23.86l9.717-9.716l-14.74-14.74l-37.643-0.02l-14.74,14.74l9.707,9.716L445.942,198.567z"/>
	</g>
	<g>
		<path d="M537.643,223.133l-23.86-23.86l-23.84,23.84l-10.424-10.423l15.24-15.24l38.057,0.02l15.24,15.24L537.643,223.133z
			 M513.782,198.567l23.86,23.86l9.706-9.716l-14.74-14.74l-37.643-0.02l-14.74,14.74l9.717,9.716L513.782,198.567z"/>
	</g>
	<g>
		<path d="M605.522,223.133l-23.86-23.86l-23.85,23.84l-10.414-10.423l15.24-15.24l38.057,0.02l15.24,15.24L605.522,223.133z
			 M581.662,198.567l23.86,23.86l9.706-9.716l-14.74-14.74l-37.643-0.02l-14.74,14.74l9.707,9.716L581.662,198.567z"/>
	</g>
</g>
<g>
	<g>
		<path d="M334.142,247.214l-23.86-23.86l-23.84,23.85l-10.424-10.424l15.24-15.24l38.057,0.02l15.24,15.24L334.142,247.214z
			 M310.282,222.647l23.86,23.86l9.707-9.707l-14.74-14.74l-37.643-0.02l-14.74,14.74l9.717,9.717L310.282,222.647z"/>
	</g>
	<g>
		<path d="M401.972,247.214l-23.859-23.86l-23.84,23.85l-10.423-10.424l15.25-15.24l38.057,0.02l15.24,15.24L401.972,247.214z
			 M378.112,222.647l23.859,23.86l9.717-9.707l-14.74-14.74l-37.643-0.02l-14.75,14.74l9.716,9.717L378.112,222.647z"/>
	</g>
	<g>
		<path d="M469.802,247.214l-23.859-23.86l-23.84,23.85l-10.414-10.424l15.24-15.24l38.057,0.02l15.24,15.24L469.802,247.214z
			 M445.942,222.647l23.859,23.86l9.717-9.707l-14.74-14.74l-37.643-0.02l-14.74,14.74l9.707,9.717L445.942,222.647z"/>
	</g>
	<g>
		<path d="M537.643,247.214l-23.86-23.86l-23.84,23.85l-10.424-10.424l15.24-15.24l38.057,0.02l15.24,15.24L537.643,247.214z
			 M513.782,222.647l23.86,23.86l9.706-9.707l-14.74-14.74l-37.643-0.02l-14.74,14.74l9.717,9.717L513.782,222.647z"/>
	</g>
	<g>
		<path d="M605.522,247.214l-23.86-23.86l-23.85,23.85l-10.414-10.424l15.24-15.24l38.057,0.02l15.24,15.24L605.522,247.214z
			 M581.662,222.647l23.86,23.86l9.706-9.707l-14.74-14.74l-37.643-0.02l-14.74,14.74l9.707,9.717L581.662,222.647z"/>
	</g>
</g>
<g>
	<g>
		<path d="M334.142,271.304l-23.86-23.86l-23.84,23.84l-10.424-10.413l15.24-15.24l38.057,0.01l15.24,15.25L334.142,271.304z
			 M310.282,246.736l23.86,23.86l9.707-9.707l-14.74-14.75l-37.643-0.01l-14.74,14.74l9.717,9.706L310.282,246.736z"/>
	</g>
	<g>
		<path d="M401.972,271.304l-23.859-23.86l-23.84,23.84l-10.423-10.413l15.25-15.24l38.057,0.01l15.24,15.25L401.972,271.304z
			 M378.112,246.736l23.859,23.86l9.717-9.707l-14.74-14.75l-37.643-0.01l-14.75,14.74l9.716,9.706L378.112,246.736z"/>
	</g>
	<g>
		<path d="M469.802,271.304l-23.859-23.86l-23.84,23.84l-10.414-10.413l15.24-15.24l38.057,0.01l15.24,15.25L469.802,271.304z
			 M445.942,246.736l23.859,23.86l9.717-9.707l-14.74-14.75l-37.643-0.01l-14.74,14.74l9.707,9.706L445.942,246.736z"/>
	</g>
	<g>
		<path d="M537.643,271.304l-23.86-23.86l-23.84,23.84l-10.424-10.413l15.24-15.24l38.057,0.01l15.24,15.25L537.643,271.304z
			 M513.782,246.736l23.86,23.86l9.706-9.707l-14.74-14.75l-37.643-0.01l-14.74,14.74l9.717,9.706L513.782,246.736z"/>
	</g>
	<g>
		<path d="M605.522,271.304l-23.86-23.86l-23.85,23.84l-10.414-10.413l15.24-15.24l38.057,0.01l15.24,15.25L605.522,271.304z
			 M581.662,246.736l23.86,23.86l9.706-9.707l-14.74-14.75l-37.643-0.01l-14.74,14.74l9.707,9.706L581.662,246.736z"/>
	</g>
</g>
<g>
	<path d="M334.142,295.394l-23.86-23.86l-23.84,23.84l-10.424-10.413l15.24-15.25l38.057,0.02l15.24,15.24L334.142,295.394z
		 M310.282,270.826l23.86,23.86l9.707-9.717l-14.74-14.74l-37.643-0.02l-14.74,14.75l9.717,9.706L310.282,270.826z"/>
</g>
<g>
	<path d="M401.972,295.394l-23.859-23.86l-23.84,23.84l-10.423-10.413l15.25-15.25l38.057,0.02l15.24,15.24L401.972,295.394z
		 M378.112,270.826l23.859,23.86l9.717-9.717l-14.74-14.74l-37.643-0.02l-14.75,14.75l9.716,9.706L378.112,270.826z"/>
</g>
<g>
	<path d="M469.802,295.394l-23.859-23.86l-23.84,23.84l-10.414-10.413l15.24-15.25l38.057,0.02l15.24,15.24L469.802,295.394z
		 M445.942,270.826l23.859,23.86l9.717-9.717l-14.74-14.74l-37.643-0.02l-14.74,14.75l9.707,9.706L445.942,270.826z"/>
</g>
<g>
	<path d="M537.643,295.394l-23.86-23.86l-23.84,23.84l-10.424-10.413l15.24-15.25l38.057,0.02l15.24,15.24L537.643,295.394z
		 M513.782,270.826l23.86,23.86l9.706-9.717l-14.74-14.74l-37.643-0.02l-14.74,14.75l9.717,9.706L513.782,270.826z"/>
</g>
<g>
	<path d="M605.522,295.394l-23.86-23.86l-23.85,23.84l-10.414-10.413l15.24-15.25l38.057,0.02l15.24,15.24L605.522,295.394z
		 M581.662,270.826l23.86,23.86l9.706-9.717l-14.74-14.74l-37.643-0.02l-14.74,14.75l9.707,9.706L581.662,270.826z"/>
</g>
<g>
	<g>
		<path d="M333.965,319.307l-23.683-23.684l-23.663,23.664h-0.354l-10.07-10.07v-0.354l14.99-14.99l0.177-0.073l37.85,0.021
			l0.177,0.073l14.99,14.989v0.354l-10.06,10.07H333.965z M310.105,295.093h0.354l23.683,23.684l9.707-9.717l-14.74-14.739
			l-37.643-0.021l-14.74,14.74l9.717,9.717L310.105,295.093z"/>
	</g>
	<g>
		<path d="M402.148,319.307h-0.354l-23.683-23.684l-23.664,23.664h-0.354l-10.07-10.07v-0.354l15-14.99l0.177-0.073l37.85,0.021
			l0.177,0.073l14.99,14.989v0.354L402.148,319.307z M377.936,295.093h0.354l23.683,23.684l9.717-9.717l-14.74-14.739l-37.643-0.021
			l-14.75,14.74l9.716,9.717L377.936,295.093z"/>
	</g>
	<g>
		<path d="M469.978,319.307h-0.354l-23.683-23.684l-23.663,23.664h-0.354l-10.061-10.07v-0.354l14.99-14.99l0.177-0.073l37.85,0.021
			l0.177,0.073l14.99,14.989v0.354L469.978,319.307z M445.766,295.093h0.354l23.683,23.684l9.717-9.717l-14.74-14.739l-37.643-0.021
			l-14.74,14.74l9.707,9.717L445.766,295.093z"/>
	</g>
	<g>
		<path d="M537.466,319.307l-23.684-23.684l-23.663,23.664h-0.354l-10.07-10.07v-0.354l14.99-14.99l0.177-0.073l37.85,0.021
			l0.177,0.073l14.99,14.989v0.354l-10.06,10.07H537.466z M513.605,295.093h0.354l23.684,23.684l9.706-9.717l-14.74-14.739
			l-37.643-0.021l-14.74,14.74l9.717,9.717L513.605,295.093z"/>
	</g>
	<g>
		<path d="M605.346,319.307l-23.684-23.684l-23.673,23.664h-0.354l-10.061-10.07v-0.354l14.99-14.99l0.177-0.073l37.85,0.021
			l0.177,0.073l14.99,14.989v0.354l-10.06,10.07H605.346z M581.485,295.093h0.354l23.684,23.684l9.706-9.717l-14.74-14.739
			l-37.643-0.021l-14.74,14.74l9.707,9.717L581.485,295.093z"/>
	</g>
</g>
<g>
	<g>
		<path d="M334.142,343.573l-23.86-23.859l-23.84,23.84l-10.424-10.424l15.24-15.24l38.057,0.021l15.24,15.239L334.142,343.573z
			 M310.282,319.007l23.86,23.859l9.707-9.717l-14.74-14.739l-37.643-0.021l-14.74,14.74l9.717,9.717L310.282,319.007z"/>
	</g>
	<g>
		<path d="M401.972,343.573l-23.859-23.859l-23.84,23.84l-10.423-10.424l15.25-15.24l38.057,0.021l15.24,15.239L401.972,343.573z
			 M378.112,319.007l23.859,23.859l9.717-9.717l-14.74-14.739l-37.643-0.021l-14.75,14.74l9.716,9.717L378.112,319.007z"/>
	</g>
	<g>
		<path d="M469.802,343.573l-23.859-23.859l-23.84,23.84l-10.414-10.424l15.24-15.24l38.057,0.021l15.24,15.239L469.802,343.573z
			 M445.942,319.007l23.859,23.859l9.717-9.717l-14.74-14.739l-37.643-0.021l-14.74,14.74l9.707,9.717L445.942,319.007z"/>
	</g>
	<g>
		<path d="M537.643,343.573l-23.86-23.859l-23.84,23.84l-10.424-10.424l15.24-15.24l38.057,0.021l15.24,15.239L537.643,343.573z
			 M513.782,319.007l23.86,23.859l9.706-9.717l-14.74-14.739l-37.643-0.021l-14.74,14.74l9.717,9.717L513.782,319.007z"/>
	</g>
	<g>
		<path d="M605.522,343.573l-23.86-23.859l-23.85,23.84l-10.414-10.424l15.24-15.24l38.057,0.021l15.24,15.239L605.522,343.573z
			 M581.662,319.007l23.86,23.859l9.706-9.717l-14.74-14.739l-37.643-0.021l-14.74,14.74l9.707,9.717L581.662,319.007z"/>
	</g>
</g>
<g>
	<path d="M334.142,368.644l-23.86-23.86l-23.84,23.84l-10.424-10.413l15.24-15.24l38.057,0.021l15.24,15.239L334.142,368.644z
		 M310.282,344.076l23.86,23.86l9.707-9.707l-14.74-14.739l-37.643-0.021l-14.74,14.74l9.717,9.706L310.282,344.076z"/>
</g>
<g>
	<path d="M401.972,368.644l-23.859-23.86l-23.84,23.84l-10.423-10.413l15.25-15.24l38.057,0.021l15.24,15.239L401.972,368.644z
		 M378.112,344.076l23.859,23.86l9.717-9.707l-14.74-14.739l-37.643-0.021l-14.75,14.74l9.716,9.706L378.112,344.076z"/>
</g>
<g>
	<path d="M469.802,368.644l-23.859-23.86l-23.84,23.84l-10.414-10.413l15.24-15.24l38.057,0.021l15.24,15.239L469.802,368.644z
		 M445.942,344.076l23.859,23.86l9.717-9.707l-14.74-14.739l-37.643-0.021l-14.74,14.74l9.707,9.706L445.942,344.076z"/>
</g>
<g>
	<path d="M537.643,368.644l-23.86-23.86l-23.84,23.84l-10.424-10.413l15.24-15.24l38.057,0.021l15.24,15.239L537.643,368.644z
		 M513.782,344.076l23.86,23.86l9.706-9.707l-14.74-14.739l-37.643-0.021l-14.74,14.74l9.717,9.706L513.782,344.076z"/>
</g>
<g>
	<path d="M605.522,368.644l-23.86-23.86l-23.85,23.84l-10.414-10.413l15.24-15.24l38.057,0.021l15.24,15.239L605.522,368.644z
		 M581.662,344.076l23.86,23.86l9.706-9.707l-14.74-14.739l-37.643-0.021l-14.74,14.74l9.707,9.706L581.662,344.076z"/>
</g>
<g>
	<path d="M334.142,392.734l-23.86-23.86l-23.84,23.841L276.019,382.3l15.24-15.25l38.057,0.021l15.24,15.25L334.142,392.734z
		 M310.282,368.166l23.86,23.86l9.707-9.706l-14.74-14.75l-37.643-0.021l-14.74,14.75l9.717,9.707L310.282,368.166z"/>
</g>
<g>
	<path d="M401.972,392.734l-23.859-23.86l-23.84,23.841L343.849,382.3l15.25-15.25l38.057,0.021l15.24,15.25L401.972,392.734z
		 M378.112,368.166l23.859,23.86l9.717-9.706l-14.74-14.75l-37.643-0.021l-14.75,14.75l9.716,9.707L378.112,368.166z"/>
</g>
<g>
	<path d="M469.802,392.734l-23.859-23.86l-23.84,23.841L411.688,382.3l15.24-15.25l38.057,0.021l15.24,15.25L469.802,392.734z
		 M445.942,368.166l23.859,23.86l9.717-9.706l-14.74-14.75l-37.643-0.021l-14.74,14.75l9.707,9.707L445.942,368.166z"/>
</g>
<g>
	<path d="M537.643,392.734l-23.86-23.86l-23.84,23.841L479.519,382.3l15.24-15.25l38.057,0.021l15.24,15.25L537.643,392.734z
		 M513.782,368.166l23.86,23.86l9.706-9.706l-14.74-14.75l-37.643-0.021l-14.74,14.75l9.717,9.707L513.782,368.166z"/>
</g>
<g>
	<path d="M605.522,392.734l-23.86-23.86l-23.85,23.841L547.398,382.3l15.24-15.25l38.057,0.021l15.24,15.25L605.522,392.734z
		 M581.662,368.166l23.86,23.86l9.706-9.706l-14.74-14.75l-37.643-0.021l-14.74,14.75l9.707,9.707L581.662,368.166z"/>
</g>
<g>
	<path d="M334.142,416.823l-23.86-23.859l-23.84,23.84l-10.424-10.424l15.24-15.24l38.057,0.021l15.24,15.239L334.142,416.823z
		 M310.282,392.257l23.86,23.859l9.707-9.717l-14.74-14.739l-37.643-0.021l-14.74,14.74l9.717,9.717L310.282,392.257z"/>
</g>
<g>
	<path d="M401.972,416.823l-23.859-23.859l-23.84,23.84l-10.423-10.424l15.25-15.24l38.057,0.021l15.24,15.239L401.972,416.823z
		 M378.112,392.257l23.859,23.859l9.717-9.717l-14.74-14.739l-37.643-0.021l-14.75,14.74l9.716,9.717L378.112,392.257z"/>
</g>
<g>
	<path d="M469.802,416.823l-23.859-23.859l-23.84,23.84l-10.414-10.424l15.24-15.24l38.057,0.021l15.24,15.239L469.802,416.823z
		 M445.942,392.257l23.859,23.859l9.717-9.717l-14.74-14.739l-37.643-0.021l-14.74,14.74l9.707,9.717L445.942,392.257z"/>
</g>
<g>
	<path d="M537.643,416.823l-23.86-23.859l-23.84,23.84l-10.424-10.424l15.24-15.24l38.057,0.021l15.24,15.239L537.643,416.823z
		 M513.782,392.257l23.86,23.859l9.706-9.717l-14.74-14.739l-37.643-0.021l-14.74,14.74l9.717,9.717L513.782,392.257z"/>
</g>
<g>
	<path d="M605.522,416.823l-23.86-23.859l-23.85,23.84l-10.414-10.424l15.24-15.24l38.057,0.021l15.24,15.239L605.522,416.823z
		 M581.662,392.257l23.86,23.859l9.706-9.717l-14.74-14.739l-37.643-0.021l-14.74,14.74l9.707,9.717L581.662,392.257z"/>
</g>
<g>
	<path d="M334.142,440.913l-23.86-23.859l-23.84,23.84l-10.424-10.424l15.24-15.24l38.057,0.021l15.24,15.24L334.142,440.913z
		 M310.282,416.347l23.86,23.859l9.707-9.716l-14.74-14.74l-37.643-0.021l-14.74,14.74l9.717,9.717L310.282,416.347z"/>
</g>
<g>
	<path d="M401.972,440.913l-23.859-23.859l-23.84,23.84l-10.423-10.424l15.25-15.24l38.057,0.021l15.24,15.24L401.972,440.913z
		 M378.112,416.347l23.859,23.859l9.717-9.716l-14.74-14.74l-37.643-0.021l-14.75,14.74l9.716,9.717L378.112,416.347z"/>
</g>
<g>
	<path d="M469.802,440.913l-23.859-23.859l-23.84,23.84l-10.414-10.424l15.24-15.24l38.057,0.021l15.24,15.24L469.802,440.913z
		 M445.942,416.347l23.859,23.859l9.717-9.716l-14.74-14.74l-37.643-0.021l-14.74,14.74l9.707,9.717L445.942,416.347z"/>
</g>
<g>
	<path d="M537.643,440.913l-23.86-23.859l-23.84,23.84l-10.424-10.424l15.24-15.24l38.057,0.021l15.24,15.24L537.643,440.913z
		 M513.782,416.347l23.86,23.859l9.706-9.716l-14.74-14.74l-37.643-0.021l-14.74,14.74l9.717,9.717L513.782,416.347z"/>
</g>
<g>
	<path d="M605.522,440.913l-23.86-23.859l-23.85,23.84l-10.414-10.424l15.24-15.24l38.057,0.021l15.24,15.24L605.522,440.913z
		 M581.662,416.347l23.86,23.859l9.706-9.716l-14.74-14.74l-37.643-0.021l-14.74,14.74l9.707,9.717L581.662,416.347z"/>
</g>
<g>
	<path d="M334.142,465.003l-23.86-23.869l-23.84,23.85l-10.424-10.424l15.24-15.239l38.057,0.02l15.24,15.24L334.142,465.003z
		 M310.282,440.427l23.86,23.869l9.707-9.716l-14.74-14.74l-37.643-0.02l-14.74,14.739l9.717,9.717L310.282,440.427z"/>
</g>
<g>
	<path d="M401.972,465.003l-23.859-23.869l-23.84,23.85l-10.423-10.424l15.25-15.239l38.057,0.02l15.24,15.24L401.972,465.003z
		 M378.112,440.427l23.859,23.869l9.717-9.716l-14.74-14.74l-37.643-0.02l-14.75,14.739l9.716,9.717L378.112,440.427z"/>
</g>
<g>
	<path d="M469.802,465.003l-23.859-23.869l-23.84,23.85l-10.414-10.424l15.24-15.239l38.057,0.02l15.24,15.24L469.802,465.003z
		 M445.942,440.427l23.859,23.869l9.717-9.716l-14.74-14.74l-37.643-0.02l-14.74,14.739l9.707,9.717L445.942,440.427z"/>
</g>
<g>
	<path d="M537.643,465.003l-23.86-23.869l-23.84,23.85l-10.424-10.424l15.24-15.239l38.057,0.02l15.24,15.24L537.643,465.003z
		 M513.782,440.427l23.86,23.869l9.706-9.716l-14.74-14.74l-37.643-0.02l-14.74,14.739l9.717,9.717L513.782,440.427z"/>
</g>
<g>
	<path d="M605.522,465.003l-23.86-23.869l-23.85,23.85l-10.414-10.424l15.24-15.239l38.057,0.02l15.24,15.24L605.522,465.003z
		 M581.662,440.427l23.86,23.869l9.706-9.716l-14.74-14.74l-37.643-0.02l-14.74,14.739l9.707,9.717L581.662,440.427z"/>
</g>
<g>
	<path d="M334.142,489.083l-23.86-23.859l-23.84,23.84l-10.424-10.414l15.24-15.239l38.057,0.02l15.24,15.24L334.142,489.083z
		 M310.282,464.517l23.86,23.859l9.707-9.706l-14.74-14.74l-37.643-0.02l-14.74,14.739l9.717,9.707L310.282,464.517z"/>
</g>
<g>
	<path d="M401.972,489.083l-23.859-23.859l-23.84,23.84l-10.423-10.414l15.25-15.239l38.057,0.02l15.24,15.24L401.972,489.083z
		 M378.112,464.517l23.859,23.859l9.717-9.706l-14.74-14.74l-37.643-0.02l-14.75,14.739l9.716,9.707L378.112,464.517z"/>
</g>
<g>
	<path d="M469.802,489.083l-23.859-23.859l-23.84,23.84l-10.414-10.414l15.24-15.239l38.057,0.02l15.24,15.24L469.802,489.083z
		 M445.942,464.517l23.859,23.859l9.717-9.706l-14.74-14.74l-37.643-0.02l-14.74,14.739l9.707,9.707L445.942,464.517z"/>
</g>
<g>
	<path d="M537.643,489.083l-23.86-23.859l-23.84,23.84l-10.424-10.414l15.24-15.239l38.057,0.02l15.24,15.24L537.643,489.083z
		 M513.782,464.517l23.86,23.859l9.706-9.706l-14.74-14.74l-37.643-0.02l-14.74,14.739l9.717,9.707L513.782,464.517z"/>
</g>
<g>
	<path d="M605.522,489.083l-23.86-23.859l-23.85,23.84l-10.414-10.414l15.24-15.239l38.057,0.02l15.24,15.24L605.522,489.083z
		 M581.662,464.517l23.86,23.859l9.706-9.706l-14.74-14.74l-37.643-0.02l-14.74,14.739l9.707,9.707L581.662,464.517z"/>
</g>
<g>
	<path d="M334.142,513.174l-23.86-23.86l-23.84,23.84l-10.424-10.413l15.24-15.25l38.057,0.02l15.24,15.25L334.142,513.174z
		 M310.282,488.607l23.86,23.86l9.707-9.707l-14.74-14.75l-37.643-0.02l-14.74,14.75l9.717,9.706L310.282,488.607z"/>
</g>
<g>
	<path d="M401.972,513.174l-23.859-23.86l-23.84,23.84l-10.423-10.413l15.25-15.25l38.057,0.02l15.24,15.25L401.972,513.174z
		 M378.112,488.607l23.859,23.86l9.717-9.707l-14.74-14.75l-37.643-0.02l-14.75,14.75l9.716,9.706L378.112,488.607z"/>
</g>
<g>
	<path d="M469.802,513.174l-23.859-23.86l-23.84,23.84l-10.414-10.413l15.24-15.25l38.057,0.02l15.24,15.25L469.802,513.174z
		 M445.942,488.607l23.859,23.86l9.717-9.707l-14.74-14.75l-37.643-0.02l-14.74,14.75l9.707,9.706L445.942,488.607z"/>
</g>
<g>
	<path d="M537.643,513.174l-23.86-23.86l-23.84,23.84l-10.424-10.413l15.24-15.25l38.057,0.02l15.24,15.25L537.643,513.174z
		 M513.782,488.607l23.86,23.86l9.706-9.707l-14.74-14.75l-37.643-0.02l-14.74,14.75l9.717,9.706L513.782,488.607z"/>
</g>
<g>
	<path d="M605.522,513.174l-23.86-23.86l-23.85,23.84l-10.414-10.413l15.24-15.25l38.057,0.02l15.24,15.25L605.522,513.174z
		 M581.662,488.607l23.86,23.86l9.706-9.707l-14.74-14.75l-37.643-0.02l-14.74,14.75l9.707,9.706L581.662,488.607z"/>
</g>
<g>
	<g>
		<path d="M673.353,29.434l-23.86-23.86l-23.84,23.84L615.229,19l15.24-15.24l38.057,0.02l15.24,15.24L673.353,29.434z
			 M649.492,4.866l23.86,23.86l9.706-9.707l-14.74-14.74l-37.643-0.02L615.936,19l9.717,9.707L649.492,4.866z"/>
	</g>
	<g>
		<path d="M741.183,29.434l-23.86-23.86l-23.84,23.84L683.059,19l15.25-15.24l38.047,0.02l15.25,15.24L741.183,29.434z
			 M717.322,4.866l23.86,23.86l9.716-9.707l-14.75-14.74l-37.633-0.02L683.766,19l9.717,9.707L717.322,4.866z"/>
	</g>
</g>
<g>
	<g>
		<path d="M673.353,54.513l-23.86-23.86l-23.84,23.84L615.229,44.08l15.24-15.25l38.057,0.02l15.24,15.25L673.353,54.513z
			 M649.492,29.946l23.86,23.86l9.706-9.706l-14.74-14.75l-37.643-0.02l-14.74,14.75l9.717,9.706L649.492,29.946z"/>
	</g>
	<g>
		<path d="M741.183,54.513l-23.86-23.86l-23.84,23.84L683.059,44.08l15.25-15.25l38.047,0.02l15.25,15.25L741.183,54.513z
			 M717.322,29.946l23.86,23.86l9.716-9.706l-14.75-14.75l-37.633-0.02l-14.75,14.75l9.717,9.706L717.322,29.946z"/>
	</g>
</g>
<g>
	<g>
		<path d="M673.353,78.604l-23.86-23.86l-23.84,23.84L615.229,68.16l15.24-15.24l38.057,0.02l15.24,15.24L673.353,78.604z
			 M649.492,54.036l23.86,23.86l9.706-9.717l-14.74-14.74l-37.643-0.02l-14.74,14.74l9.717,9.717L649.492,54.036z"/>
	</g>
	<g>
		<path d="M741.183,78.604l-23.86-23.86l-23.84,23.84L683.059,68.16l15.25-15.24l38.047,0.02l15.25,15.24L741.183,78.604z
			 M717.322,54.036l23.86,23.86l9.716-9.717l-14.75-14.74l-37.633-0.02l-14.75,14.74l9.717,9.717L717.322,54.036z"/>
	</g>
</g>
<g>
	<g>
		<path d="M673.353,102.693l-23.86-23.86l-23.84,23.84L615.229,92.25l15.24-15.24l38.057,0.02l15.24,15.24L673.353,102.693z
			 M649.492,78.127l23.86,23.86l9.706-9.716l-14.74-14.74l-37.643-0.02l-14.74,14.74l9.717,9.716L649.492,78.127z"/>
	</g>
	<g>
		<path d="M741.183,102.693l-23.86-23.86l-23.84,23.84L683.059,92.25l15.25-15.24l38.047,0.02l15.25,15.24L741.183,102.693z
			 M717.322,78.127l23.86,23.86l9.716-9.716l-14.75-14.74l-37.633-0.02l-14.75,14.74l9.717,9.716L717.322,78.127z"/>
	</g>
</g>
<g>
	<g>
		<path d="M673.353,126.783l-23.86-23.87l-23.84,23.85l-10.424-10.423l15.24-15.24l38.057,0.02l15.24,15.24L673.353,126.783z
			 M649.492,102.207l23.86,23.87l9.706-9.716l-14.74-14.74l-37.643-0.02l-14.74,14.74l9.717,9.716L649.492,102.207z"/>
	</g>
	<g>
		<path d="M741.183,126.783l-23.86-23.87l-23.84,23.85l-10.424-10.423l15.25-15.24l38.047,0.02l15.25,15.24L741.183,126.783z
			 M717.322,102.207l23.86,23.87l9.716-9.716l-14.75-14.74l-37.633-0.02l-14.75,14.74l9.717,9.716L717.322,102.207z"/>
	</g>
</g>
<g>
	<g>
		<path d="M673.353,150.863l-23.86-23.86l-23.84,23.84l-10.424-10.414l15.24-15.24l38.057,0.02l15.24,15.24L673.353,150.863z
			 M649.492,126.297l23.86,23.86l9.706-9.707l-14.74-14.74l-37.643-0.02l-14.74,14.74l9.717,9.707L649.492,126.297z"/>
	</g>
	<g>
		<path d="M741.183,150.863l-23.86-23.86l-23.84,23.84l-10.424-10.414l15.25-15.24l38.047,0.02l15.25,15.24L741.183,150.863z
			 M717.322,126.297l23.86,23.86l9.716-9.707l-14.75-14.74l-37.633-0.02l-14.75,14.74l9.717,9.707L717.322,126.297z"/>
	</g>
</g>
<g>
	<g>
		<path d="M673.353,174.954l-23.86-23.86l-23.84,23.84l-10.424-10.414l15.24-15.25l38.057,0.02l15.24,15.25L673.353,174.954z
			 M649.492,150.386l23.86,23.86l9.706-9.707l-14.74-14.75l-37.643-0.02l-14.74,14.75l9.717,9.707L649.492,150.386z"/>
	</g>
	<g>
		<path d="M741.183,174.954l-23.86-23.86l-23.84,23.84l-10.424-10.414l15.25-15.25l38.047,0.02l15.25,15.25L741.183,174.954z
			 M717.322,150.386l23.86,23.86l9.716-9.707l-14.75-14.75l-37.633-0.02l-14.75,14.75l9.717,9.707L717.322,150.386z"/>
	</g>
</g>
<g>
	<g>
		<path d="M673.353,199.044l-23.86-23.86l-23.84,23.84L615.229,188.6l15.24-15.24l38.057,0.02l15.24,15.24L673.353,199.044z
			 M649.492,174.477l23.86,23.86l9.706-9.716l-14.74-14.74l-37.643-0.02l-14.74,14.74l9.717,9.716L649.492,174.477z"/>
	</g>
	<g>
		<path d="M741.183,199.044l-23.86-23.86l-23.84,23.84L683.059,188.6l15.25-15.24l38.047,0.02l15.25,15.24L741.183,199.044z
			 M717.322,174.477l23.86,23.86l9.716-9.716l-14.75-14.74l-37.633-0.02l-14.75,14.74l9.717,9.716L717.322,174.477z"/>
	</g>
</g>
<g>
	<g>
		<path d="M673.353,223.133l-23.86-23.86l-23.84,23.84l-10.424-10.423l15.24-15.24l38.057,0.02l15.24,15.24L673.353,223.133z
			 M649.492,198.567l23.86,23.86l9.706-9.716l-14.74-14.74l-37.643-0.02l-14.74,14.74l9.717,9.716L649.492,198.567z"/>
	</g>
	<g>
		<path d="M741.183,223.133l-23.86-23.86l-23.84,23.84l-10.424-10.423l15.25-15.24l38.047,0.02l15.25,15.24L741.183,223.133z
			 M717.322,198.567l23.86,23.86l9.716-9.716l-14.75-14.74l-37.633-0.02l-14.75,14.74l9.717,9.716L717.322,198.567z"/>
	</g>
</g>
<g>
	<g>
		<path d="M673.353,247.214l-23.86-23.86l-23.84,23.85l-10.424-10.424l15.24-15.24l38.057,0.02l15.24,15.24L673.353,247.214z
			 M649.492,222.647l23.86,23.86l9.706-9.707l-14.74-14.74l-37.643-0.02l-14.74,14.74l9.717,9.717L649.492,222.647z"/>
	</g>
	<g>
		<path d="M741.183,247.214l-23.86-23.86l-23.84,23.85l-10.424-10.424l15.25-15.24l38.047,0.02l15.25,15.24L741.183,247.214z
			 M717.322,222.647l23.86,23.86l9.716-9.707l-14.75-14.74l-37.633-0.02l-14.75,14.74l9.717,9.717L717.322,222.647z"/>
	</g>
</g>
<g>
	<g>
		<path d="M673.353,271.304l-23.86-23.86l-23.84,23.84l-10.424-10.413l15.24-15.24l38.057,0.01l15.24,15.25L673.353,271.304z
			 M649.492,246.736l23.86,23.86l9.706-9.707l-14.74-14.75l-37.643-0.01l-14.74,14.74l9.717,9.706L649.492,246.736z"/>
	</g>
	<g>
		<path d="M741.183,271.304l-23.86-23.86l-23.84,23.84l-10.424-10.413l15.25-15.24l38.047,0.01l15.25,15.25L741.183,271.304z
			 M717.322,246.736l23.86,23.86l9.716-9.707l-14.75-14.75l-37.633-0.01l-14.75,14.74l9.717,9.706L717.322,246.736z"/>
	</g>
</g>
<g>
	<g>
		<path d="M673.353,295.394l-23.86-23.86l-23.84,23.84l-10.424-10.413l15.24-15.25l38.057,0.02l15.24,15.24L673.353,295.394z
			 M649.492,270.826l23.86,23.86l9.706-9.717l-14.74-14.74l-37.643-0.02l-14.74,14.75l9.717,9.706L649.492,270.826z"/>
	</g>
	<g>
		<path d="M741.183,295.394l-23.86-23.86l-23.84,23.84l-10.424-10.413l15.25-15.25l38.047,0.02l15.25,15.24L741.183,295.394z
			 M717.322,270.826l23.86,23.86l9.716-9.717l-14.75-14.74l-37.633-0.02l-14.75,14.75l9.717,9.706L717.322,270.826z"/>
	</g>
</g>
<g>
	<g>
		<path d="M673.176,319.307l-23.684-23.684l-23.663,23.664h-0.354l-10.07-10.07v-0.354l14.99-14.99l0.177-0.073l37.85,0.021
			l0.177,0.073l14.99,14.989v0.354l-10.06,10.07H673.176z M649.315,295.093h0.354l23.684,23.684l9.706-9.717l-14.74-14.739
			l-37.643-0.021l-14.74,14.74l9.717,9.717L649.315,295.093z"/>
	</g>
	<g>
		<path d="M741.006,319.307l-23.684-23.684l-23.663,23.664h-0.354l-10.07-10.07v-0.354l15-14.99l0.177-0.073l37.84,0.021
			l0.177,0.073l15,14.989v0.354l-10.069,10.07H741.006z M717.146,295.093h0.354l23.684,23.684l9.716-9.717l-14.75-14.739
			l-37.633-0.021l-14.75,14.74l9.717,9.717L717.146,295.093z"/>
	</g>
</g>
<g>
	<g>
		<path d="M673.353,343.573l-23.86-23.859l-23.84,23.84l-10.424-10.424l15.24-15.24l38.057,0.021l15.24,15.239L673.353,343.573z
			 M649.492,319.007l23.86,23.859l9.706-9.717l-14.74-14.739l-37.643-0.021l-14.74,14.74l9.717,9.717L649.492,319.007z"/>
	</g>
	<g>
		<path d="M741.183,343.573l-23.86-23.859l-23.84,23.84l-10.424-10.424l15.25-15.24l38.047,0.021l15.25,15.239L741.183,343.573z
			 M717.322,319.007l23.86,23.859l9.716-9.717l-14.75-14.739l-37.633-0.021l-14.75,14.74l9.717,9.717L717.322,319.007z"/>
	</g>
</g>
<g>
	<path d="M673.353,368.644l-23.86-23.86l-23.84,23.84l-10.424-10.413l15.24-15.24l38.057,0.021l15.24,15.239L673.353,368.644z
		 M649.492,344.076l23.86,23.86l9.706-9.707l-14.74-14.739l-37.643-0.021l-14.74,14.74l9.717,9.706L649.492,344.076z"/>
</g>
<g>
	<path d="M741.183,368.644l-23.86-23.86l-23.84,23.84l-10.424-10.413l15.25-15.24l38.047,0.021l15.25,15.239L741.183,368.644z
		 M717.322,344.076l23.86,23.86l9.716-9.707l-14.75-14.739l-37.633-0.021l-14.75,14.74l9.717,9.706L717.322,344.076z"/>
</g>
<g>
	<path d="M673.353,392.734l-23.86-23.86l-23.84,23.841L615.229,382.3l15.24-15.25l38.057,0.021l15.24,15.25L673.353,392.734z
		 M649.492,368.166l23.86,23.86l9.706-9.706l-14.74-14.75l-37.643-0.021l-14.74,14.75l9.717,9.707L649.492,368.166z"/>
</g>
<g>
	<path d="M741.183,392.734l-23.86-23.86l-23.84,23.841L683.059,382.3l15.25-15.25l38.047,0.021l15.25,15.25L741.183,392.734z
		 M717.322,368.166l23.86,23.86l9.716-9.706l-14.75-14.75l-37.633-0.021l-14.75,14.75l9.717,9.707L717.322,368.166z"/>
</g>
<g>
	<path d="M673.353,416.823l-23.86-23.859l-23.84,23.84l-10.424-10.424l15.24-15.24l38.057,0.021l15.24,15.239L673.353,416.823z
		 M649.492,392.257l23.86,23.859l9.706-9.717l-14.74-14.739l-37.643-0.021l-14.74,14.74l9.717,9.717L649.492,392.257z"/>
</g>
<g>
	<path d="M741.183,416.823l-23.86-23.859l-23.84,23.84l-10.424-10.424l15.25-15.24l38.047,0.021l15.25,15.239L741.183,416.823z
		 M717.322,392.257l23.86,23.859l9.716-9.717l-14.75-14.739l-37.633-0.021l-14.75,14.74l9.717,9.717L717.322,392.257z"/>
</g>
<g>
	<path d="M673.353,440.913l-23.86-23.859l-23.84,23.84l-10.424-10.424l15.24-15.24l38.057,0.021l15.24,15.24L673.353,440.913z
		 M649.492,416.347l23.86,23.859l9.706-9.716l-14.74-14.74l-37.643-0.021l-14.74,14.74l9.717,9.717L649.492,416.347z"/>
</g>
<g>
	<path d="M741.183,440.913l-23.86-23.859l-23.84,23.84l-10.424-10.424l15.25-15.24l38.047,0.021l15.25,15.24L741.183,440.913z
		 M717.322,416.347l23.86,23.859l9.716-9.716l-14.75-14.74l-37.633-0.021l-14.75,14.74l9.717,9.717L717.322,416.347z"/>
</g>
<g>
	<path d="M673.353,465.003l-23.86-23.869l-23.84,23.85l-10.424-10.424l15.24-15.239l38.057,0.02l15.24,15.24L673.353,465.003z
		 M649.492,440.427l23.86,23.869l9.706-9.716l-14.74-14.74l-37.643-0.02l-14.74,14.739l9.717,9.717L649.492,440.427z"/>
</g>
<g>
	<path d="M741.183,465.003l-23.86-23.869l-23.84,23.85l-10.424-10.424l15.25-15.239l38.047,0.02l15.25,15.24L741.183,465.003z
		 M717.322,440.427l23.86,23.869l9.716-9.716l-14.75-14.74l-37.633-0.02l-14.75,14.739l9.717,9.717L717.322,440.427z"/>
</g>
<g>
	<path d="M673.353,489.083l-23.86-23.859l-23.84,23.84l-10.424-10.414l15.24-15.239l38.057,0.02l15.24,15.24L673.353,489.083z
		 M649.492,464.517l23.86,23.859l9.706-9.706l-14.74-14.74l-37.643-0.02l-14.74,14.739l9.717,9.707L649.492,464.517z"/>
</g>
<g>
	<path d="M741.183,489.083l-23.86-23.859l-23.84,23.84l-10.424-10.414l15.25-15.239l38.047,0.02l15.25,15.24L741.183,489.083z
		 M717.322,464.517l23.86,23.859l9.716-9.706l-14.75-14.74l-37.633-0.02l-14.75,14.739l9.717,9.707L717.322,464.517z"/>
</g>
<g>
	<path d="M673.353,513.174l-23.86-23.86l-23.84,23.84l-10.424-10.413l15.24-15.25l38.057,0.02l15.24,15.25L673.353,513.174z
		 M649.492,488.607l23.86,23.86l9.706-9.707l-14.74-14.75l-37.643-0.02l-14.74,14.75l9.717,9.706L649.492,488.607z"/>
</g>
<g>
	<path d="M741.183,513.174l-23.86-23.86l-23.84,23.84l-10.424-10.413l15.25-15.25l38.047,0.02l15.25,15.25L741.183,513.174z
		 M717.322,488.607l23.86,23.86l9.716-9.707l-14.75-14.75l-37.633-0.02l-14.75,14.75l9.717,9.706L717.322,488.607z"/>
</g>
</svg>
