<svg id="Calque_1" data-name="Calque 1" xmlns="http://www.w3.org/2000/svg" viewBox="0 0 636.35 156.1"><defs><style>.cls-1{fill="var(--logo-color, #1e2547)"}.cls-2{fill:#33b1da;}</style></defs><title>COLOR</title><path class="cls-1" d="M229.13,6.66V18.47a26.1,26.1,0,0,0-19.27-8.26,21.41,21.41,0,0,0-21.85,22,21.27,21.27,0,0,0,21.85,21.94,26.1,26.1,0,0,0,19.27-8.26V57.73c-5.24,4.35-11.63,6.48-19.27,6.48a32.82,32.82,0,0,1-23.36-9.06A30.7,30.7,0,0,1,177,32.24a30.68,30.68,0,0,1,9.5-22.91A32.52,32.52,0,0,1,209.86.18C217.41.18,223.8,2.31,229.13,6.66Z"/><path class="cls-1" d="M235.71,40.76a22.58,22.58,0,0,1,7.1-16.87,25.35,25.35,0,0,1,34.64,0,22.58,22.58,0,0,1,7.1,16.87,22.58,22.58,0,0,1-7.1,16.88,25.35,25.35,0,0,1-34.64,0A22.58,22.58,0,0,1,235.71,40.76ZM270,50.8a13.81,13.81,0,0,0,4-10,13.45,13.45,0,0,0-4-9.94,14,14,0,0,0-19.81,0,13.74,13.74,0,0,0-3.9,9.94,14.11,14.11,0,0,0,3.9,10,14.26,14.26,0,0,0,19.81,0Z"/><path class="cls-1" d="M292,63.15V18.38h10.56v6.4c2.14-4.35,7.2-7.28,13.59-7.28,10.66,0,17,6.83,17,17.94V63.15H322.48V37c0-6.13-3.55-10-9.5-10a10,10,0,0,0-10.4,10.39V63.15Z"/><path class="cls-1" d="M347.17,63.15V28.06H339.8V18.38h7.37V16.16c0-6.83,1.42-10.56,4.89-13.14,2.75-2,7-3,12.78-3a51.46,51.46,0,0,1,7.29.44V9.5a36.24,36.24,0,0,0-5.95-.44c-6.13,0-8.8,1.77-8.8,6.3v3H384V63.15H373.46V28.06h-16V63.15Z"/><path class="cls-1" d="M428.17,24.87V1.24h10.66V63.15H428.17V56.66c-1.51,4.35-6.93,7.46-14.3,7.46a21.52,21.52,0,0,1-16-6.66,23.35,23.35,0,0,1-6.39-16.7,23,23,0,0,1,6.39-16.6,21.27,21.27,0,0,1,16-6.75C421.24,17.41,426.66,20.52,428.17,24.87ZM425,50.53a13,13,0,0,0,4-9.77A13,13,0,0,0,425,31a13.24,13.24,0,0,0-9.68-3.91,12.83,12.83,0,0,0-9.5,3.91,13.51,13.51,0,0,0-3.73,9.76,13.52,13.52,0,0,0,3.73,9.77,12.83,12.83,0,0,0,9.5,3.91A13.24,13.24,0,0,0,425,50.53Z"/><path class="cls-1" d="M446.2,40.76c0-7,2.13-12.7,6.48-17s9.95-6.48,16.7-6.48c6.48,0,11.72,2.13,15.72,6.48a22.14,22.14,0,0,1,6.13,15.9c0,1.33-.09,2.66-.18,3.82H456.77c.35,7.1,5.59,11.63,13.5,11.63,7,0,12.34-1.69,16.07-5.15V60q-6.52,4.53-16.52,4.53c-7,0-12.79-2.13-17.14-6.31s-6.48-9.94-6.48-17ZM480.39,36a8.71,8.71,0,0,0-3.2-6.75,11.39,11.39,0,0,0-7.81-2.84,13.49,13.49,0,0,0-8.53,2.84A9.06,9.06,0,0,0,457,36Z"/><path class="cls-1" d="M498.42,63.15V18.38H509v6.4c2.13-4.35,7.2-7.28,13.59-7.28,10.66,0,17,6.83,17,17.94V63.15H528.89V37c0-6.13-3.56-10-9.51-10A10,10,0,0,0,509,37.39V63.15Z"/><path class="cls-1" d="M585.37,21.49V32.15a19.34,19.34,0,0,0-13.76-5.51,14.34,14.34,0,0,0-10.39,4,13.37,13.37,0,0,0-4.09,10,13.36,13.36,0,0,0,4.09,10,14.3,14.3,0,0,0,10.39,4,19,19,0,0,0,13.76-5.51V59.86q-5.6,4.53-14.39,4.53a24,24,0,0,1-17.4-6.75,22.44,22.44,0,0,1-7-17,22.45,22.45,0,0,1,7-17A24,24,0,0,1,571,17Q579.65,17,585.37,21.49Z"/><path class="cls-1" d="M591.32,40.76c0-7,2.14-12.7,6.49-17s9.94-6.48,16.69-6.48c6.49,0,11.73,2.13,15.72,6.48a22.1,22.1,0,0,1,6.13,15.9c0,1.33-.09,2.66-.18,3.82H601.89c.36,7.1,5.6,11.63,13.5,11.63,7,0,12.35-1.69,16.08-5.15V60q-6.53,4.53-16.52,4.53c-7,0-12.79-2.13-17.14-6.31s-6.49-9.94-6.49-17ZM625.52,36a8.74,8.74,0,0,0-3.2-6.75,11.41,11.41,0,0,0-7.82-2.84A13.48,13.48,0,0,0,606,29.22,9,9,0,0,0,602.16,36Z"/><path class="cls-1" d="M180.29,154.7V92.8h23.62a20.26,20.26,0,0,1,14,5.6,20.15,20.15,0,0,1,0,28.95,19.66,19.66,0,0,1-14,5.68H191.39V154.7Zm11.1-31.7h12c5,0,9.68-3.64,9.68-10s-4.71-10.12-9.68-10.12h-12Z"/><path class="cls-1" d="M264,116.42v-6.48h10.66V154.7H264v-6.48c-1.51,4.35-6.93,7.46-14.3,7.46a21.54,21.54,0,0,1-16-6.66,23.37,23.37,0,0,1-6.39-16.7,23,23,0,0,1,6.39-16.61,21.29,21.29,0,0,1,16-6.75C257,109,262.44,112.07,264,116.42Zm-3.2,25.67a13.93,13.93,0,0,0,0-19.54,13.27,13.27,0,0,0-9.68-3.9,12.86,12.86,0,0,0-9.5,3.9,14.66,14.66,0,0,0,0,19.54,12.83,12.83,0,0,0,9.5,3.91A13.24,13.24,0,0,0,260.75,142.09Z"/><path class="cls-1" d="M283.84,154.7V109.94h10.57v6.66c2.13-4.7,7-7.55,13.32-7.55a16.33,16.33,0,0,1,3.2.27v10.3a23.27,23.27,0,0,0-4.44-.44c-7.37,0-12.08,4.62-12.08,12V154.7Z"/><path class="cls-1" d="M321.5,154.7V119.62h-5.77v-9.68h5.77V92.8h10.66v17.14h9.68v9.68h-9.68V154.7Z"/><path class="cls-1" d="M348.32,154.7V109.94h10.57v6.4c2.13-4.36,7.2-7.29,13.59-7.29,10.66,0,17,6.84,17,17.94V154.7H378.79V128.5c0-6.12-3.56-9.94-9.51-9.94A10,10,0,0,0,358.89,129V154.7Z"/><path class="cls-1" d="M396.46,132.32c0-7,2.13-12.7,6.49-17s9.94-6.48,16.69-6.48c6.49,0,11.73,2.13,15.72,6.48a22.1,22.1,0,0,1,6.13,15.9c0,1.33-.09,2.66-.18,3.82H407c.36,7.1,5.6,11.63,13.5,11.63,7,0,12.35-1.69,16.08-5.15v9.95Q430.07,156,420.09,156c-7,0-12.79-2.13-17.14-6.3s-6.49-9.95-6.49-17Zm34.2-4.79a8.74,8.74,0,0,0-3.2-6.75,11.42,11.42,0,0,0-7.82-2.85,13.47,13.47,0,0,0-8.52,2.85,9,9,0,0,0-3.82,6.75Z"/><path class="cls-1" d="M448.69,154.7V109.94h10.56v6.66c2.14-4.7,7-7.55,13.33-7.55a16.22,16.22,0,0,1,3.19.27v10.3a23.27,23.27,0,0,0-4.44-.44c-7.37,0-12.08,4.62-12.08,12V154.7Z"/><polygon class="cls-2" points="98.06 0.08 98.06 29.18 29.09 29.18 29.09 98.09 0 98.09 0 54.75 25.98 29.18 29.09 26.11 29.09 26.12 54.73 0.08 98.06 0.08"/><polygon class="cls-2" points="127.15 29.18 127.15 72.51 101.17 98.09 98.06 101.15 98.06 101.14 72.43 127.18 58.19 127.18 58.19 127.35 32.15 152.99 32.16 152.99 29.09 156.1 29.09 98.09 98.06 98.09 98.06 29.18 127.15 29.18"/></svg>
